<svg width="31" height="30" viewBox="0 0 31 30" fill="none" xmlns="http://www.w3.org/2000/svg">
<path d="M23.9376 14.1877C23.606 14.1848 23.2755 14.1513 22.9501 14.0877C22.6372 14.022 22.3316 13.9257 22.0376 13.8002L21.8251 13.7502H21.6751C21.5501 13.7502 21.4876 13.8377 21.4876 14.0127V14.4252C21.4699 14.5034 21.4699 14.5845 21.4876 14.6627C21.5504 14.7655 21.6415 14.848 21.7501 14.9002C22.0507 15.0506 22.3703 15.16 22.7001 15.2252C23.1096 15.3231 23.529 15.3734 23.9501 15.3752C24.3736 15.3879 24.7963 15.3288 25.2001 15.2002C25.5337 15.1127 25.8448 14.955 26.1126 14.7377C26.3657 14.5421 26.5745 14.295 26.7251 14.0127C26.8684 13.7079 26.941 13.3746 26.9376 13.0377C26.9421 12.6198 26.8105 12.2117 26.5626 11.8752C26.2293 11.4965 25.7961 11.2193 25.3126 11.0752L24.1251 10.7002C23.7933 10.6144 23.4827 10.4612 23.2126 10.2502C23.1334 10.1742 23.0704 10.083 23.0275 9.98205C22.9845 9.88108 22.9624 9.77245 22.9626 9.66272C22.9536 9.51439 22.9849 9.36641 23.0531 9.2344C23.1213 9.10239 23.2239 8.99125 23.3501 8.91272C23.6959 8.74493 24.0787 8.66752 24.4626 8.68772C25.0095 8.67444 25.5524 8.78557 26.0501 9.01272C26.1518 9.06459 26.2618 9.09843 26.3751 9.11272C26.5001 9.11272 26.5626 9.01272 26.5626 8.83772V8.38772C26.5663 8.29053 26.5401 8.19454 26.4876 8.11272C26.4208 8.02763 26.3352 7.95917 26.2376 7.91272C26.1261 7.85135 26.0089 7.8011 25.8876 7.76272C25.732 7.70781 25.5734 7.6619 25.4126 7.62522L24.8626 7.50022C24.6587 7.48549 24.454 7.48549 24.2501 7.50022C23.8993 7.49417 23.5496 7.54051 23.2126 7.63772C22.897 7.72983 22.6006 7.87803 22.3376 8.07522C22.0936 8.25327 21.8928 8.48398 21.7501 8.75022C21.5968 9.03406 21.5193 9.35266 21.5251 9.67522C21.5176 10.1265 21.663 10.567 21.9376 10.9252C22.2808 11.3387 22.7437 11.6356 23.2626 11.7752L24.5126 12.1502C24.8219 12.2225 25.1091 12.3683 25.3501 12.5752C25.4997 12.7336 25.5806 12.9449 25.5751 13.1627C25.5778 13.3208 25.5388 13.4769 25.462 13.6151C25.3851 13.7534 25.2733 13.869 25.1376 13.9502C24.7666 14.1369 24.3517 14.219 23.9376 14.1877ZM16.6751 8.12522C16.6558 8.00269 16.599 7.88915 16.5126 7.80022C16.4191 7.73127 16.3031 7.70003 16.1876 7.71272H15.5001C15.3852 7.70634 15.2713 7.73701 15.1751 7.80022C15.084 7.88575 15.0263 8.00099 15.0126 8.12522L13.7626 13.6252L12.3376 8.12522C12.3148 8.00119 12.2536 7.88747 12.1626 7.80022C12.1626 7.80022 12.0001 7.71272 11.8376 7.71272H11.0251C10.8876 7.71272 10.8251 7.78772 10.8251 7.92522C10.8372 8.0402 10.8624 8.15342 10.9001 8.26272L12.8501 14.6877C12.8754 14.802 12.9268 14.9089 13.0001 15.0002C13.0983 15.0575 13.2117 15.0836 13.3251 15.0752H14.0376C14.1549 15.0831 14.2721 15.0571 14.3751 15.0002C14.4539 14.9029 14.5056 14.7864 14.5251 14.6627L15.7751 9.31272L17.0251 14.6752C17.0355 14.7978 17.0886 14.9128 17.1751 15.0002C17.2734 15.0689 17.3932 15.1 17.5126 15.0877H18.2251C18.336 15.0932 18.4456 15.0625 18.5376 15.0002C18.6316 14.9153 18.6934 14.8005 18.7126 14.6752L20.7251 8.25022C20.7324 8.18375 20.7324 8.11668 20.7251 8.05022C20.7299 8.00451 20.7299 7.95842 20.7251 7.91272C20.7293 7.88384 20.7267 7.85438 20.7175 7.82668C20.7083 7.79899 20.6927 7.77382 20.6721 7.75319C20.6515 7.73255 20.6263 7.71702 20.5986 7.70782C20.5709 7.69863 20.5415 7.69602 20.5126 7.70022H19.7376C19.6229 7.69553 19.5094 7.72606 19.4126 7.78772C19.3356 7.88307 19.2802 7.99394 19.2501 8.11272L18.0001 13.7502L16.6751 8.12522ZM7.71258 10.7877C7.41827 10.7491 7.1219 10.7282 6.82508 10.7252C6.08942 10.6866 5.36495 10.9177 4.78758 11.3752C4.54171 11.5858 4.34657 11.8492 4.2167 12.1457C4.08684 12.4422 4.02561 12.7642 4.03758 13.0877C4.02304 13.3823 4.06999 13.6767 4.17544 13.9522C4.28089 14.2276 4.44254 14.4781 4.65008 14.6877C4.87315 14.8936 5.13516 15.0527 5.42068 15.1558C5.7062 15.2588 6.00946 15.3037 6.31258 15.2877C6.7897 15.3014 7.26354 15.2048 7.69718 15.0053C8.13081 14.8058 8.51253 14.5089 8.81258 14.1377C8.88565 14.3053 8.96915 14.4681 9.06258 14.6252C9.15157 14.7625 9.25192 14.8922 9.36258 15.0127C9.39281 15.0433 9.42882 15.0676 9.46852 15.0842C9.50821 15.1008 9.55081 15.1094 9.59383 15.1094C9.63686 15.1094 9.67945 15.1008 9.71915 15.0842C9.75884 15.0676 9.79485 15.0433 9.82508 15.0127L10.3501 14.6627C10.3939 14.6356 10.4312 14.5991 10.4593 14.5559C10.4874 14.5127 10.5056 14.4638 10.5126 14.4127C10.5328 14.3476 10.5328 14.2779 10.5126 14.2127C10.4113 14.0233 10.3236 13.827 10.2501 13.6252C10.1831 13.3811 10.1536 13.1282 10.1626 12.8752V10.2377C10.1924 9.86729 10.1469 9.49465 10.0288 9.14231C9.9106 8.78997 9.72225 8.46524 9.47508 8.18772C9.15741 7.92061 8.78817 7.72173 8.39033 7.60346C7.9925 7.48518 7.57458 7.45004 7.16258 7.50022C6.74064 7.50006 6.32046 7.55468 5.91258 7.66272C5.54939 7.74715 5.19709 7.87297 4.86258 8.03772C4.77435 8.07669 4.69708 8.1368 4.63758 8.21272C4.60704 8.30612 4.60704 8.40682 4.63758 8.50022V8.91272C4.63758 9.08772 4.63758 9.16272 4.81258 9.16272C4.85789 9.17252 4.90477 9.17252 4.95008 9.16272L5.23758 9.06272C5.49149 8.93809 5.7548 8.8336 6.02508 8.75022C6.31942 8.67644 6.62163 8.63866 6.92508 8.63772C7.40829 8.5871 7.89228 8.72602 8.27508 9.02522C8.57276 9.39911 8.71189 9.87485 8.66258 10.3502V10.9627L7.71258 10.7877ZM8.68758 11.9127V12.2502C8.68855 12.4946 8.65916 12.7381 8.60008 12.9752C8.54732 13.1743 8.44888 13.3583 8.31258 13.5127C8.10416 13.7577 7.8314 13.9396 7.52508 14.0377C7.25185 14.1338 6.96471 14.1845 6.67508 14.1877C6.51652 14.1995 6.35722 14.179 6.20682 14.1274C6.05642 14.0759 5.91804 13.9943 5.80008 13.8877C5.69059 13.7691 5.6073 13.6288 5.55561 13.4759C5.50392 13.323 5.485 13.1609 5.50008 13.0002C5.48975 12.8206 5.52169 12.6411 5.59333 12.4762C5.66497 12.3112 5.77432 12.1653 5.91258 12.0502C6.27688 11.7948 6.71925 11.6754 7.16258 11.7127H7.93758C8.19105 11.7656 8.44142 11.8324 8.68758 11.9127ZM25.2001 18.7502C22.2118 20.0075 19.0045 20.6617 15.7626 20.6752C11.4233 20.676 7.15845 19.5474 3.38758 17.4002C3.08758 17.2127 2.85008 17.5252 3.11258 17.7627C6.50671 20.831 10.9247 22.5206 15.5001 22.5002C19.1082 22.5091 22.6358 21.4334 25.6251 19.4127C26.0501 19.0252 25.6626 18.5127 25.2001 18.7502Z" fill="#6F3D58"/>
<path d="M23.475 17.5748C23.2375 17.7498 23.275 17.9873 23.5375 17.9498C24.425 17.8373 26.3875 17.6123 26.7375 18.0623C27.0875 18.5123 26.35 20.3498 26.0125 21.1748C25.9125 21.4248 26.1375 21.5248 26.3625 21.3373C26.9317 20.8133 27.368 20.1614 27.6353 19.4355C27.9027 18.7095 27.9934 17.9303 27.9 17.1623C27.1817 16.8795 26.407 16.7694 25.6383 16.8411C24.8697 16.9127 24.1286 17.1641 23.475 17.5748Z" fill="#6F3D58"/>
</svg>
