<svg width="30" height="30" viewBox="0 0 30 30" fill="none" xmlns="http://www.w3.org/2000/svg">
<path d="M15 9.01758C13.8168 9.01758 12.6602 9.36844 11.6763 10.0258C10.6925 10.6832 9.92576 11.6175 9.47297 12.7106C9.02017 13.8038 8.9017 15.0066 9.13253 16.1671C9.36336 17.3276 9.93314 18.3936 10.7698 19.2302C11.6064 20.0669 12.6724 20.6366 13.8329 20.8675C14.9934 21.0983 16.1962 20.9798 17.2894 20.527C18.3825 20.0742 19.3168 19.3075 19.9742 18.3237C20.6316 17.3399 20.9824 16.1832 20.9824 15C20.9804 13.414 20.3495 11.8935 19.228 10.772C18.1065 9.65053 16.586 9.01959 15 9.01758Z" fill="#6F3D58"/>
<path d="M23.5891 9.54922C25.0945 9.54922 26.3148 8.32884 26.3148 6.82344C26.3148 5.31803 25.0945 4.09766 23.5891 4.09766C22.0837 4.09766 20.8633 5.31803 20.8633 6.82344C20.8633 8.32884 22.0837 9.54922 23.5891 9.54922Z" fill="#6F3D58"/>
<path d="M26.9449 9.56253L26.8307 9.31175L26.6484 9.518C26.202 10.025 25.6372 10.4138 25.0043 10.65L24.8285 10.7145L24.9 10.8862C25.4448 12.1892 25.7244 13.5877 25.7227 15C25.7227 20.9133 20.9121 25.7227 15 25.7227C9.08789 25.7227 4.27734 20.9133 4.27734 15C4.27734 9.08675 9.08672 4.27737 15 4.27737C16.5902 4.27405 18.1608 4.6285 19.5955 5.31448L19.7637 5.39065L19.8369 5.21956C20.104 4.59928 20.5198 4.05433 21.0475 3.63284L21.2625 3.46116L21.0182 3.33987C19.1596 2.37329 17.0948 1.87071 15 1.87503C7.76309 1.87503 1.875 7.76311 1.875 15C1.875 22.2369 7.76309 28.125 15 28.125C22.2369 28.125 28.125 22.2369 28.125 15C28.1281 13.1237 27.7255 11.2688 26.9449 9.56253Z" fill="#6F3D58"/>
</svg>
