<svg width="31" height="30" viewBox="0 0 31 30" fill="none" xmlns="http://www.w3.org/2000/svg">
<g clip-path="url(#clip0_608_1938)">
<path d="M15.5 29.9451C15.0725 29.9451 14.675 29.8338 14.3038 29.6413L10.5175 27.4688C9.94875 27.1663 10.2337 27.0563 10.405 27.0013C11.1725 26.7538 11.315 26.6988 12.1125 26.2576C12.1975 26.2026 12.3125 26.2301 12.3975 26.2851L15.3012 27.9638C15.4137 28.0188 15.5575 28.0188 15.6425 27.9638L27.0013 21.6088C27.1138 21.5538 27.1712 21.4438 27.1712 21.3063V8.62383C27.1712 8.48633 27.115 8.37632 27.0013 8.32133L15.6425 1.99507C15.5288 1.94007 15.3862 1.94007 15.3012 1.99507L3.9425 8.32133C3.82875 8.37632 3.77125 8.51383 3.77125 8.62383V21.3063C3.77125 21.4163 3.82875 21.5538 3.9425 21.6088L7.045 23.3426C8.725 24.1676 9.7775 23.2051 9.7775 22.2426V9.72507C9.7775 9.56007 9.92 9.39507 10.12 9.39507H11.5713C11.7425 9.39507 11.9125 9.53257 11.9125 9.72507V22.2413C11.9125 24.4151 10.6887 25.6801 8.55375 25.6801C7.89875 25.6801 7.38625 25.6801 5.935 24.9926L2.94625 23.3426C2.5861 23.1445 2.28535 22.8539 2.07506 22.5008C1.86476 22.1477 1.75255 21.7448 1.75 21.3338V8.65133C1.75 7.82632 2.205 7.05632 2.94625 6.64383L14.305 0.287575C14.6748 0.0979323 15.0844 -0.000976563 15.5 -0.000976562C15.9156 -0.000976563 16.3252 0.0979323 16.695 0.287575L28.055 6.64258C28.795 7.05508 29.25 7.82508 29.25 8.65007V21.3326C29.25 22.1576 28.795 22.9276 28.055 23.3413L16.695 29.6951C16.3178 29.8586 15.9111 29.9428 15.5 29.9426V29.9451ZM19.0012 21.2238C14.02 21.2238 12.995 19.0238 12.995 17.1526C12.995 16.9876 13.1375 16.8226 13.3363 16.8226H14.8162C14.9875 16.8226 15.1287 16.9326 15.1287 17.0976C15.3575 18.5551 16.0125 19.2701 19.03 19.2701C21.4213 19.2701 22.4462 18.7476 22.4462 17.5101C22.4462 16.7951 22.1612 16.2726 18.4325 15.9151C15.3287 15.6113 13.3937 14.9526 13.3937 12.5588C13.3937 10.3301 15.3288 9.00882 18.575 9.00882C22.2188 9.00882 24.0125 10.2201 24.24 12.8613C24.2375 12.9507 24.2073 13.0372 24.1538 13.1088C24.0975 13.1638 24.0125 13.2188 23.9262 13.2188H22.4462C22.3744 13.2171 22.305 13.192 22.2486 13.1473C22.1922 13.1027 22.1519 13.0409 22.1337 12.9713C21.7912 11.4588 20.9088 10.9626 18.575 10.9626C15.955 10.9626 15.6425 11.8426 15.6425 12.5026C15.6425 13.3013 16.0125 13.5488 19.5425 13.9888C23.0438 14.4288 24.695 15.0613 24.695 17.4263C24.6663 19.8488 22.6175 21.2238 19.0012 21.2238Z" fill="#6F3D58"/>
</g>
<defs>
<clipPath id="clip0_608_1938">
<rect width="30" height="30" fill="white" transform="translate(0.5)"/>
</clipPath>
</defs>
</svg>
