<svg width="31" height="30" viewBox="0 0 31 30" fill="none" xmlns="http://www.w3.org/2000/svg">
<g clip-path="url(#clip0_608_1927)">
<path d="M30.5 14.6112C30.5 12.6237 28.0112 10.74 24.195 9.5725C25.0763 5.68375 24.685 2.58875 22.96 1.5975C22.542 1.3634 22.069 1.24557 21.59 1.25625V2.61875C21.8713 2.61875 22.0975 2.675 22.2875 2.77875C23.1187 3.25625 23.48 5.07125 23.1987 7.4075C23.1313 7.9825 23.0212 8.5875 22.8862 9.205C21.6083 8.89705 20.3113 8.67447 19.0037 8.53875C18.2248 7.46411 17.375 6.44267 16.46 5.48125C18.4537 3.62875 20.325 2.61375 21.5975 2.61375V1.25C19.915 1.25 17.7137 2.44875 15.4875 4.5275C13.2625 2.4625 11.06 1.275 9.37875 1.275V2.6375C10.645 2.6375 12.5225 3.6475 14.5163 5.4875C13.66 6.3875 12.8038 7.4075 11.99 8.53875C10.6798 8.67297 9.38044 8.89767 8.10125 9.21125C7.96606 8.62599 7.85968 8.03444 7.7825 7.43875C7.495 5.10125 7.85 3.28625 8.67625 2.80375C8.85875 2.69375 9.0975 2.64375 9.37875 2.64375V1.28125C8.86625 1.28125 8.4 1.39125 7.9975 1.6225C6.27875 2.61375 5.89375 5.70125 6.78 9.57875C2.97625 10.7537 0.5 12.63 0.5 14.6112C0.5 16.5988 2.98875 18.4825 6.805 19.6488C5.92375 23.5387 6.315 26.6338 8.04 27.6238C8.4375 27.8563 8.9025 27.9662 9.415 27.9662C11.0975 27.9662 13.2988 26.7675 15.525 24.6887C17.75 26.755 19.9513 27.9412 21.6337 27.9412C22.1164 27.9514 22.593 27.8332 23.015 27.5988C24.7337 26.6088 25.1187 23.5212 24.2325 19.6437C28.0238 18.4762 30.5 16.5925 30.5 14.6112ZM22.5375 10.5325C22.3 11.3498 22.0247 12.1557 21.7125 12.9475C21.2015 11.9534 20.6403 10.986 20.0312 10.0487C20.9 10.1775 21.7375 10.3362 22.5387 10.5325H22.5375ZM19.7375 17.045C19.2797 17.8443 18.788 18.6238 18.2638 19.3813C16.4291 19.543 14.5838 19.545 12.7487 19.3875C11.6962 17.884 10.7757 16.2922 9.9975 14.63C10.7745 12.9639 11.6911 11.3665 12.7375 9.855C14.5717 9.69296 16.4166 9.69045 18.2513 9.8475C18.7588 10.575 19.255 11.3525 19.7313 12.1725C20.1963 12.9725 20.6187 13.785 21.0037 14.605C20.6145 15.4349 20.1921 16.2489 19.7375 17.045ZM21.7125 16.25C22.0425 17.0688 22.325 17.8888 22.5563 18.6838C21.7563 18.88 20.9113 19.045 20.0375 19.1725C20.6441 18.2268 21.2031 17.2514 21.7125 16.25ZM15.5125 22.775C14.9438 22.1875 14.375 21.5337 13.8125 20.8175C14.3625 20.8425 14.925 20.8612 15.4937 20.8612C16.0687 20.8612 16.6375 20.8487 17.1937 20.8175C16.6437 21.5337 16.075 22.1875 15.5125 22.775ZM10.9625 19.1725C10.1197 19.0504 9.28295 18.8894 8.455 18.69C8.68125 17.9012 8.9625 17.0875 9.28 16.275C9.53125 16.7625 9.795 17.2525 10.0825 17.7425C10.37 18.2313 10.6625 18.7087 10.9625 19.1725ZM15.4812 6.4475C16.05 7.035 16.6187 7.68875 17.1812 8.405C16.6313 8.38 16.0688 8.36125 15.5 8.36125C14.925 8.36125 14.3563 8.37375 13.8 8.405C14.35 7.68875 14.9187 7.035 15.4812 6.4475ZM10.9562 10.05C10.3498 10.9937 9.79081 11.967 9.28125 12.9663C8.96027 12.1693 8.67868 11.3571 8.4375 10.5325C9.2375 10.3425 10.0825 10.1775 10.9562 10.05ZM5.4225 17.705C3.2575 16.7825 1.8575 15.5712 1.8575 14.6112C1.8575 13.6512 3.2575 12.4337 5.4225 11.5175C5.9475 11.2912 6.5225 11.0887 7.11625 10.9C7.465 12.0975 7.92375 13.345 8.49125 14.6238C7.95546 15.8265 7.50232 17.0644 7.135 18.3288C6.55431 18.149 5.98279 17.9408 5.4225 17.705ZM8.7125 26.4425C7.88125 25.9675 7.52 24.15 7.80125 21.815C7.86875 21.24 7.97875 20.6338 8.11375 20.0163C9.31125 20.31 10.62 20.5363 11.9962 20.6838C12.7752 21.7584 13.625 22.7798 14.54 23.7412C12.5463 25.5938 10.675 26.6088 9.4025 26.6088C9.16243 26.6114 8.92542 26.5547 8.7125 26.4438V26.4425ZM23.2175 21.7838C23.505 24.12 23.15 25.9363 22.3237 26.4188C22.1412 26.5287 21.9025 26.5775 21.6213 26.5775C20.355 26.5775 18.4775 25.5688 16.4837 23.7275C17.3949 22.7701 18.239 21.751 19.01 20.6775C20.3202 20.5433 21.6196 20.3186 22.8988 20.005C23.04 20.6225 23.1488 21.215 23.2175 21.7838ZM25.5712 17.705C25.0462 17.9312 24.4712 18.1338 23.8775 18.3225C23.5037 17.0516 23.0443 15.8076 22.5025 14.5988C23.065 13.3275 23.5163 12.0863 23.8587 10.8938C24.4413 11.0741 25.0149 11.2823 25.5775 11.5175C27.7425 12.44 29.1425 13.6512 29.1425 14.6112C29.1362 15.5712 27.7362 16.7887 25.5712 17.705Z" fill="#6F3D58"/>
<path d="M15.4937 17.4064C16.235 17.4064 16.9459 17.1119 17.4701 16.5878C17.9943 16.0636 18.2887 15.3527 18.2887 14.6114C18.2887 13.8701 17.9943 13.1592 17.4701 12.635C16.9459 12.1109 16.235 11.8164 15.4937 11.8164C14.7525 11.8164 14.0415 12.1109 13.5174 12.635C12.9932 13.1592 12.6987 13.8701 12.6987 14.6114C12.6987 15.3527 12.9932 16.0636 13.5174 16.5878C14.0415 17.1119 14.7525 17.4064 15.4937 17.4064Z" fill="#6F3D58"/>
</g>
<defs>
<clipPath id="clip0_608_1927">
<rect width="30" height="30" fill="white" transform="translate(0.5)"/>
</clipPath>
</defs>
</svg>
