<svg width="30" height="30" viewBox="0 0 30 30" fill="none" xmlns="http://www.w3.org/2000/svg">
<g clip-path="url(#clip0_608_1934)">
<path d="M14.1488 20.7617C14.1348 20.7898 14.1207 20.8123 14.1488 20.7617V20.7617ZM25.8263 16.6835C24.8832 16.6835 23.9532 16.8992 23.1076 17.3164C22.831 16.7586 22.5451 16.2711 22.4982 15.9054C22.4419 15.4789 22.381 15.2257 22.4466 14.7195C22.5123 14.2132 22.8076 13.496 22.8029 13.4445C22.7982 13.3929 22.7373 13.1351 22.1326 13.1304C21.5279 13.1257 21.0076 13.2476 20.9466 13.407C20.8396 13.6982 20.7566 13.9976 20.6982 14.3023C20.5904 14.8507 19.4898 16.8101 18.8663 17.832C18.6601 17.4336 18.4866 17.082 18.4491 16.8007C18.3929 16.3742 18.332 16.1211 18.3976 15.6148C18.4632 15.1086 18.7585 14.3914 18.7538 14.3398C18.7491 14.2882 18.6882 14.0304 18.0845 14.0257C17.4807 14.0211 16.9594 14.1429 16.8985 14.3023C16.8376 14.4617 16.772 14.8367 16.6501 15.1976C16.5282 15.5586 15.061 18.8211 14.6776 19.6695C14.4807 20.1007 14.312 20.4476 14.1901 20.682C14.1713 20.7195 14.1573 20.7429 14.1479 20.7617C14.162 20.7382 14.1713 20.7148 14.1713 20.7242C14.0682 20.9257 14.0073 21.0382 14.0073 21.0382V21.0429C13.9276 21.1929 13.8385 21.3289 13.7963 21.3289C13.7682 21.3289 13.7073 20.9351 13.8104 20.3961C14.0307 19.2617 14.551 17.4992 14.5463 17.4382C14.5416 17.4054 14.6448 17.1007 14.2041 16.9367C13.7776 16.782 13.6229 17.0398 13.5854 17.0398C13.5479 17.0398 13.5198 17.1335 13.5198 17.1335C13.5198 17.1335 13.9932 15.1461 12.6104 15.1461C11.7479 15.1461 10.5479 16.0929 9.9582 16.9507C9.58789 17.1523 8.78633 17.5882 7.94258 18.0523L6.97226 18.5867C6.94883 18.5632 6.93008 18.5398 6.90664 18.5164C5.22851 16.7257 2.13101 15.4601 2.26226 13.0554C2.30914 12.1789 2.61383 9.8773 8.21914 7.08355C12.8129 4.79605 16.4851 5.42418 17.1179 6.82105C18.0273 8.81324 15.1538 12.5211 10.3838 13.0554C8.56508 13.257 7.60976 12.5539 7.3707 12.2914C7.12226 12.0148 7.08476 12.0007 6.99101 12.0523C6.83633 12.1367 6.93476 12.3804 6.99101 12.5257C7.13164 12.8961 7.71758 13.5523 8.71601 13.8804C9.59258 14.1664 11.7245 14.3257 14.3016 13.3273C17.1976 12.2117 19.4523 9.10386 18.7904 6.5023C18.1173 3.85855 13.7335 2.99136 9.58883 4.46324C7.11851 5.3398 4.44758 6.71793 2.52664 8.51324C0.243827 10.6507 -0.120861 12.5117 0.0291392 13.2898C0.563514 16.0507 4.36883 17.8507 5.89133 19.182L5.68039 19.2992C4.91633 19.6789 2.0157 21.1976 1.28914 22.8007C0.468827 24.6195 1.42508 25.9226 2.05226 26.1007C4.01164 26.6445 6.01695 25.6648 7.09508 24.057C8.1732 22.4492 8.04195 20.3492 7.54508 19.3929C7.54039 19.3789 7.53101 19.3695 7.52633 19.3554C8.0888 19.0223 8.65605 18.6972 9.22789 18.3804C9.04039 18.8867 8.90445 19.4961 8.83414 20.3773C8.74976 21.4086 9.17633 22.7445 9.72945 23.2695C9.9732 23.4992 10.2676 23.5039 10.4513 23.5039C11.0982 23.5039 11.3888 22.9695 11.7123 22.332C12.1107 21.5539 12.4623 20.6492 12.4623 20.6492C12.4623 20.6492 12.0216 23.0961 13.2263 23.0961C13.667 23.0961 14.1076 22.5289 14.3045 22.2382V22.2429C14.3045 22.2429 14.3138 22.2242 14.3373 22.1867C14.3841 22.1164 14.4076 22.0742 14.4076 22.0742V22.0601C14.5857 21.7554 14.9748 21.057 15.5607 19.9039C16.3201 18.4132 17.0457 16.5523 17.0457 16.5523C17.116 16.9611 17.2135 17.3651 17.3363 17.7617C17.4676 18.207 17.7441 18.6945 17.9645 19.1679C17.7863 19.4117 17.6785 19.5523 17.6785 19.5523C17.6785 19.5561 17.6804 19.5589 17.6832 19.5617C17.5426 19.7492 17.3832 19.9507 17.2191 20.1476C16.6201 20.8601 15.9066 21.6757 15.8129 21.9101C15.7004 22.1867 15.7285 22.3929 15.9441 22.5523C16.1035 22.6742 16.3848 22.6929 16.6801 22.6695C17.2191 22.632 17.5988 22.5007 17.7816 22.4164C18.1188 22.2956 18.4375 22.1283 18.7285 21.9195C19.3144 21.4882 19.6707 20.8695 19.6379 20.0539C19.6191 19.6039 19.4738 19.1539 19.2957 18.732C19.3473 18.657 19.4035 18.5773 19.4551 18.4976C20.0651 17.5874 20.6147 16.6382 21.1004 15.6561C21.1707 16.0648 21.2673 16.4689 21.391 16.8654C21.5035 17.2451 21.7238 17.6623 21.9254 18.0701C21.0535 18.7779 20.5145 19.5982 20.3279 20.1373C19.981 21.1357 20.2529 21.5857 20.7638 21.6889C20.9935 21.7357 21.3216 21.6279 21.5654 21.5248C21.9273 21.4039 22.2685 21.2286 22.577 21.0045C23.1629 20.5732 23.7301 19.9686 23.6916 19.1482C23.6776 18.7779 23.5744 18.4076 23.4385 18.0514C24.1744 17.742 25.1307 17.5732 26.3495 17.7139C28.9595 18.0186 29.4704 19.6498 29.372 20.3295C29.2735 21.0092 28.7251 21.3889 28.5423 21.5014C28.3595 21.6139 28.3032 21.6561 28.3173 21.7404C28.3407 21.8623 28.4251 21.8576 28.5798 21.8295C28.7954 21.792 29.9485 21.2764 30.0001 20.0154C30.0751 18.4217 28.5423 16.6686 25.8282 16.6826L25.8263 16.6835ZM5.70851 23.4664C4.84601 24.4086 3.63758 24.7648 3.11726 24.4648C2.55945 24.1404 2.77976 22.7539 3.84289 21.7498C4.48976 21.1404 5.32414 20.5779 5.87726 20.2311C6.00383 20.1561 6.18664 20.0436 6.41164 19.9076C6.42992 19.8959 6.44869 19.8849 6.46789 19.8748C6.51008 19.8467 6.55695 19.8232 6.60383 19.7951C6.99195 21.2201 6.61789 22.4764 5.70851 23.4654V23.4664ZM12.0066 19.182C11.7066 19.9179 11.0748 21.7929 10.6895 21.6945C10.3613 21.6101 10.1598 20.1804 10.6238 18.7742C10.8582 18.0664 11.3551 17.2226 11.6504 16.8945C12.1238 16.3648 12.6441 16.196 12.766 16.407C12.9301 16.6835 12.1941 18.7226 12.0066 19.182ZM17.2098 21.6664C17.0832 21.732 16.966 21.7742 16.9098 21.7414C16.8676 21.7179 16.9613 21.6289 16.9613 21.6289C16.9613 21.6289 17.6129 20.9304 17.8707 20.6117C18.0207 20.4242 18.1941 20.2039 18.3816 19.9601C18.3816 19.9836 18.3863 20.007 18.3863 20.0351C18.3807 20.8742 17.5745 21.4414 17.2088 21.6664H17.2098ZM21.2223 20.7523C21.1285 20.6867 21.1426 20.4664 21.4566 19.782C21.5785 19.5148 21.8598 19.0648 22.3473 18.6335C22.4026 18.7967 22.4326 18.9673 22.4363 19.1398C22.4316 20.1945 21.677 20.5882 21.2223 20.7523Z" fill="#6F3D58"/>
</g>
<defs>
<clipPath id="clip0_608_1934">
<rect width="30" height="30" fill="white"/>
</clipPath>
</defs>
</svg>
