<svg width="30" height="30" viewBox="0 0 30 30" fill="none" xmlns="http://www.w3.org/2000/svg">
<path d="M20.5918 13.3886C21.4862 13.5287 22.1055 13.9491 22.4496 14.5096C22.7936 15.0701 23 16.051 23 17.3121C23 19.8344 22.2431 21.9364 20.7294 23.5478C19.2156 25.1593 17.289 26 14.9496 26C14.055 26 13.1605 25.8599 12.266 25.5096C11.3715 25.1593 10.6835 24.6688 10.0642 24.1084C9.37613 23.4777 8.8257 22.707 8.48164 22.0064C8.20643 21.2357 8 20.465 8 19.6943C8 18.8535 8.20643 18.1529 8.55043 17.6625C8.89449 17.172 9.51371 16.8917 10.2706 16.6816C10.133 16.3312 9.99541 16.0509 9.92662 15.7707C9.85777 15.5605 9.78898 15.3504 9.78898 15.2102C9.78898 14.7898 9.99541 14.2994 10.4771 13.809C10.9587 13.3185 11.3715 13.1083 11.7844 13.1083C11.9908 13.1083 12.1285 13.1083 12.3349 13.1784C12.5413 13.2484 12.7477 13.3185 13.0229 13.5287C12.4037 11.4268 11.7844 9.67516 11.4403 8.48409C11.0963 7.29302 10.9587 6.52235 10.9587 6.03185C10.9587 5.40126 11.0963 4.91083 11.4403 4.56054C11.7157 4.21014 12.1973 4 12.7478 4C13.6423 4 14.812 6.10195 16.257 10.3758C16.5322 11.0765 16.6698 11.637 16.8074 12.0574C16.945 11.7771 17.0826 11.2866 17.289 10.7261C18.7339 6.52229 19.9725 4.42039 20.9358 4.42039C21.4174 4.42039 21.8303 4.56048 22.1743 4.91083C22.4496 5.26117 22.6559 5.75161 22.6559 6.31209C22.6559 6.73248 22.5184 7.57326 22.1743 8.76433C21.7614 9.95546 21.2799 11.4968 20.5918 13.3886ZM9.99535 19.5542C10.133 19.6943 10.3394 19.9746 10.5458 20.3249C11.1651 21.2357 11.7844 21.7261 12.3349 21.7261C12.5413 21.7261 12.6789 21.6561 12.8165 21.5159C12.9541 21.3758 13.0229 21.2357 13.0229 21.1656C13.0229 21.0255 12.9541 20.7452 12.7477 20.3949C12.5413 20.0445 12.2661 19.6242 11.922 19.2038C11.5092 18.7134 11.1651 18.293 10.9587 18.0827C10.6835 17.8726 10.4771 17.7325 10.3394 17.7325C9.99541 17.7325 9.65135 17.9426 9.37613 18.293C9.10092 18.6433 8.96328 19.1337 8.96328 19.6242C8.96328 20.0445 9.03213 20.4649 9.23855 21.0255C9.44498 21.5159 9.7202 22.0764 10.133 22.5669C10.7523 23.2675 11.4404 23.8981 12.3349 24.3184C13.2294 24.7388 14.1239 24.9491 15.2247 24.9491C17.1513 24.9491 18.7339 24.2484 20.0413 22.7771C21.3487 21.3057 21.9679 19.4841 21.9679 17.242C21.9679 16.5414 21.8991 16.0509 21.8303 15.6305C21.7614 15.2102 21.555 14.9299 21.3487 14.7898C20.9358 14.4394 20.1789 14.1592 19.0092 13.8789C17.8395 13.5987 16.6009 13.4586 15.3624 13.4586C15.0184 13.4586 14.7431 13.5286 14.6055 13.6688C14.4679 13.8089 14.3991 14.0191 14.3991 14.2993C14.3991 15 14.7431 15.4904 15.5 15.7706C16.2569 16.0509 17.4954 16.2611 19.1468 16.2611H19.766C19.9037 16.2611 20.0413 16.3312 20.1101 16.4013C20.1789 16.5414 20.2477 16.6815 20.2477 16.8917C20.11 17.0318 19.7661 17.242 19.2156 17.4522C18.6651 17.6624 18.3211 17.8726 18.0459 18.0828C17.4266 18.5032 16.9449 19.0637 16.6009 19.6943C16.2569 20.3248 16.0504 20.8853 16.0504 21.4459C16.0504 21.7962 16.1193 22.1465 16.2569 22.6369C16.3946 23.1274 16.4633 23.4076 16.4633 23.4777V23.758C16.0504 23.758 15.7064 23.4777 15.4312 22.9873C15.1559 22.4968 15.0871 21.8662 15.0871 21.0255V20.8853C15.0184 20.9554 14.9496 21.0255 14.8807 21.0255C14.8119 21.0255 14.7431 21.0955 14.6055 21.0955H14.3303C14.2614 21.0955 14.1927 21.0255 14.055 21.0255C14.055 21.1656 14.1239 21.2357 14.1239 21.3758V21.6561C14.1239 22.0063 13.9862 22.3567 13.711 22.6369C13.4358 22.9172 13.0917 23.0573 12.6789 23.0573C12.0596 23.0573 11.4404 22.7771 10.7523 22.1465C10.133 21.5159 9.78904 20.9554 9.78904 20.3248C9.78904 20.1847 9.78904 20.1146 9.85777 20.0445C9.85777 19.6943 9.92662 19.6242 9.99541 19.5541L9.99535 19.5542ZM14.4678 19.9045C14.6054 19.9045 14.8119 19.8344 14.9495 19.6943C15.0871 19.5542 15.1559 19.344 15.1559 19.2039C15.1559 18.9937 15.0183 18.5732 14.7431 17.8727C14.4678 17.172 14.1238 16.4714 13.711 15.8408C13.4357 15.3504 13.0917 14.93 12.8165 14.7197C12.5412 14.4395 12.266 14.3695 11.9908 14.3695C11.7843 14.3695 11.5779 14.5096 11.3027 14.7898C11.0275 15.0701 10.9586 15.2803 10.9586 15.5605C10.9586 15.7707 11.0963 16.1912 11.3027 16.6816C11.5779 17.172 11.8531 17.6625 12.266 18.2229C12.6789 18.7835 13.0918 19.2739 13.5046 19.6243C13.9174 19.7644 14.1927 19.9045 14.4679 19.9045L14.4678 19.9045ZM15.9127 12.6178L14.2614 7.92355C13.8486 6.73248 13.5733 5.8917 13.2981 5.54141C13.0917 5.19107 12.8853 4.98087 12.61 4.98087C12.4036 4.98087 12.266 5.05098 12.1284 5.19107C11.922 5.40126 11.8531 5.61146 11.8531 5.8917C11.8531 6.38214 12.0596 7.15287 12.4036 8.27389C12.7477 9.39492 13.2981 10.9363 13.9862 12.758C14.055 12.6178 14.1238 12.5478 14.2614 12.5478C14.399 12.4777 14.5367 12.4777 14.6742 12.4777H15.0183C15.2247 12.5478 15.4999 12.5478 15.9127 12.6178ZM17.5641 17.172C17.1513 17.172 16.7385 17.1019 16.3256 17.0319C15.9128 16.9618 15.5687 16.8917 15.2247 16.7516C15.3624 17.1019 15.4999 17.3822 15.6376 17.7325C15.7752 18.0829 15.844 18.3631 15.9128 18.7134C16.1192 18.4331 16.3944 18.1529 16.6696 17.8727C17.0137 17.5924 17.289 17.3822 17.5641 17.172ZM19.5596 13.1083C20.2477 11.2866 20.7293 9.74526 21.1422 8.55414C21.4862 7.36307 21.6926 6.66244 21.6926 6.3822C21.6926 6.10189 21.6238 5.89176 21.4862 5.6815C21.3486 5.54141 21.211 5.47137 21.0045 5.47137C20.7293 5.47137 20.454 5.6815 20.1788 6.172C19.9036 6.66244 19.5596 7.36307 19.2155 8.41405L17.7018 12.758L19.5596 13.1083Z" fill="#6F3D58"/>
</svg>
