<svg width="30" height="30" viewBox="0 0 30 30" fill="none" xmlns="http://www.w3.org/2000/svg">
<g clip-path="url(#clip0_829_6)">
<mask id="mask0_829_6" style="mask-type:luminance" maskUnits="userSpaceOnUse" x="0" y="0" width="30" height="30">
<path d="M0 0H30V30H0V0Z" fill="white"/>
</mask>
<g mask="url(#mask0_829_6)">
<path d="M24.1664 10.5835H17.7499V8.75024H24.1664V10.5835ZM25.7485 19.75C25.3434 20.9388 23.8887 22.4999 21.0727 22.4999C18.255 22.4999 15.9725 20.915 15.9725 17.2979C15.9725 13.7139 18.1037 11.8714 20.9829 11.8714C23.808 11.8714 25.5331 13.5049 25.9099 15.9285C25.9813 16.3923 26.0098 17.0174 25.9969 17.8901H18.639C18.7582 20.8334 21.8317 20.926 22.8446 19.75H25.7485ZM18.7032 16.0834H23.2543C23.1581 14.6653 22.213 14.0494 20.9838 14.0494C19.64 14.0494 18.8966 14.7533 18.7032 16.0834ZM9.92726 22.4889H4.00024V8.76949H10.3737C15.3932 8.84374 15.4885 13.7597 12.8669 15.0998C16.0394 16.2548 16.1458 22.4889 9.92726 22.4889ZM6.75017 14.2501H10.0354C12.3344 14.2501 12.6992 11.5002 9.74943 11.5002H6.75017V14.2501ZM9.85851 17H6.75017V19.7646H9.81268C12.613 19.7646 12.4416 17 9.85851 17Z" fill="#6F3D58"/>
</g>
</g>
<defs>
<clipPath id="clip0_829_6">
<rect width="30" height="30" fill="white"/>
</clipPath>
</defs>
</svg>
