<svg width="16" height="16" viewBox="0 0 16 16" fill="none" xmlns="http://www.w3.org/2000/svg">
<path d="M3.71671 1.38266C3.80158 1.42347 3.87321 1.48743 3.92334 1.56716C3.97346 1.64689 4.00005 1.73915 4.00004 1.83333C4.00004 2.38666 4.20804 2.70533 4.46871 3.09333L4.48804 3.12133C4.70937 3.45066 5.00004 3.882 5.00004 4.5C5.00004 5.13066 4.68204 5.68666 4.19737 6.01666C4.32471 6.12333 4.43737 6.25466 4.53471 6.412C4.85204 6.92533 5.00004 7.71 5.00004 8.83666C5.00004 9.978 4.84671 11.3487 4.59671 12.4433C4.47271 12.9873 4.31871 13.4893 4.13537 13.866C4.04882 14.0534 3.93417 14.2265 3.79537 14.3793C3.65804 14.52 3.44671 14.67 3.16671 14.67C2.88671 14.67 2.67537 14.52 2.53871 14.3793C2.39951 14.2268 2.28482 14.0537 2.19871 13.866C2.01471 13.4887 1.86071 12.9873 1.73671 12.4427C1.47667 11.2578 1.34149 10.049 1.33337 8.83599C1.33337 7.70933 1.48137 6.92533 1.79871 6.412C1.88924 6.26299 2.00314 6.12951 2.13604 6.01666C1.88856 5.84864 1.686 5.62255 1.54608 5.35816C1.40615 5.09377 1.33312 4.79913 1.33337 4.5C1.33337 4.25466 1.33337 3.83266 1.58871 3.288C1.83871 2.75466 2.31404 2.142 3.18737 1.44266C3.26098 1.38379 3.34973 1.34691 3.44339 1.3363C3.53704 1.32568 3.63179 1.34175 3.71671 1.38266V1.38266ZM2.33337 4.49933V4.5C2.33337 4.72101 2.42117 4.93297 2.57745 5.08925C2.73373 5.24553 2.94569 5.33333 3.16671 5.33333C3.38772 5.33333 3.59968 5.24553 3.75596 5.08925C3.91224 4.93297 4.00004 4.72101 4.00004 4.5C4.00004 4.20733 3.87671 4.00466 3.63871 3.65066L3.63071 3.63866C3.47804 3.412 3.29737 3.14333 3.16937 2.79866C2.80737 3.16666 2.60737 3.472 2.49471 3.712C2.33337 4.056 2.33337 4.30066 2.33337 4.49866V4.49933ZM2.64937 6.93733C2.48404 7.20533 2.33337 7.75466 2.33337 8.83666C2.33337 9.904 2.47871 11.2 2.71137 12.2207C2.82871 12.734 2.96204 13.1507 3.09737 13.428C3.12204 13.4793 3.14537 13.522 3.16671 13.558C3.18804 13.522 3.21137 13.4793 3.23604 13.428C3.37137 13.1507 3.50471 12.7333 3.62204 12.2207C3.85537 11.2007 4.00004 9.90466 4.00004 8.83666C4.00004 7.75466 3.84937 7.20533 3.68404 6.93733C3.63418 6.84711 3.55881 6.77359 3.46737 6.726C3.3727 6.68476 3.26988 6.66561 3.16671 6.67C3.03337 6.67 2.93804 6.69066 2.86604 6.726C2.7746 6.77359 2.69924 6.84711 2.64937 6.93733V6.93733ZM6.66671 9.94533C6.31351 9.88609 5.96995 9.77934 5.64538 9.628C5.66489 9.24988 5.67045 8.87118 5.66204 8.49266C5.96271 8.69466 6.30204 8.84333 6.66671 8.926V7C6.66671 6.73478 6.77206 6.48043 6.9596 6.29289C7.14714 6.10535 7.40149 6 7.66671 6H10.3334C10.3333 5.44046 10.1768 4.89208 9.88152 4.41682C9.5862 3.94156 9.16386 3.55836 8.66221 3.31051C8.16056 3.06267 7.59959 2.96006 7.04268 3.01428C6.48578 3.06849 5.95514 3.27738 5.51071 3.61733C5.37737 3.24866 5.18737 2.96666 5.05537 2.77066L5.02871 2.73066C5.62768 2.30843 6.33114 2.05885 7.06229 2.00919C7.79344 1.95952 8.52418 2.11167 9.17475 2.44903C9.82532 2.78639 10.3707 3.29599 10.7514 3.9222C11.1321 4.54841 11.3334 5.26716 11.3334 6H13.6667C13.9319 6 14.1863 6.10535 14.3738 6.29289C14.5614 6.48043 14.6667 6.73478 14.6667 7V13C14.6667 13.2652 14.5614 13.5196 14.3738 13.7071C14.1863 13.8946 13.9319 14 13.6667 14H7.66671C7.40149 14 7.14714 13.8946 6.9596 13.7071C6.77206 13.5196 6.66671 13.2652 6.66671 13V9.94466V9.94533ZM7.66671 9.98733V13.0007H13.6667V7.00066H11.2067C10.999 7.80401 10.5468 8.52295 9.91257 9.05802C9.27837 9.59309 8.49356 9.91783 7.66671 9.98733V9.98733ZM10.1627 7.00066H7.66671V8.98266C8.22684 8.91986 8.75798 8.70067 9.19939 8.35017C9.64079 7.99966 9.97463 7.532 10.1627 7.00066V7.00066Z" fill="#888888"/>
</svg>
