<svg width="287" height="573" viewBox="0 0 287 573" fill="none" xmlns="http://www.w3.org/2000/svg">
<g opacity="0.1">
<circle r="109.141" transform="matrix(-1 8.74228e-08 8.74228e-08 1 109.641 462.77)" stroke="#888888"/>
<path d="M109.825 264.644C128.944 264.644 147.874 260.846 165.537 253.465C183.2 246.085 199.249 235.268 212.768 221.63C226.286 207.993 237.01 191.804 244.326 173.986C251.642 156.168 255.408 137.071 255.408 117.785" stroke="#888888"/>
<path d="M84.4132 78.5434C82.5019 78.5434 80.6094 78.9199 78.8436 79.6513C77.0778 80.3827 75.4734 81.4547 74.1219 82.8062C72.7704 84.1577 71.6984 85.7621 70.967 87.5279C70.2356 89.2937 69.8591 91.1862 69.8591 93.0975" stroke="#888888"/>
<circle r="77.6067" transform="matrix(-1 8.74228e-08 8.74228e-08 1 110.126 463.256)" stroke="#888888" stroke-linecap="round" stroke-dasharray="6 6"/>
<circle r="50.4392" transform="matrix(-1 8.74228e-08 8.74228e-08 1 110.126 261.439)" stroke="#888888"/>
<circle r="17.9351" transform="matrix(-1 8.74228e-08 8.74228e-08 1 109.64 178.481)" stroke="#888888"/>
<circle r="28.123" transform="matrix(-1 8.74228e-08 8.74228e-08 1 110.126 117.839)" stroke="#888888"/>
<line y1="-0.5" x2="159.172" y2="-0.5" transform="matrix(0.707107 0.707107 0.707107 -0.707107 74.2256 81.9395)" stroke="#888888"/>
<line x1="110.325" y1="-61" x2="110.326" y2="541.761" stroke="#888888"/>
<line x1="109.825" y1="461.808" x2="31.9262" y2="461.808" stroke="#888888"/>
<line x1="286.151" y1="210.262" x2="109.92" y2="386.494" stroke="#888888"/>
<line x1="110.179" y1="461.662" x2="31.0027" y2="540.838" stroke="#888888" stroke-dasharray="6 6"/>
<path d="M109.155 206.619L106.365 204.991C104.602 203.963 102.358 204.321 101.002 205.846V205.846C100.036 206.933 98.5847 207.456 97.1474 207.235L95.242 206.942C93.9793 206.747 92.7276 207.351 92.0938 208.46V208.46C91.5444 209.422 90.5221 210.015 89.4148 210.015L86.9677 210.015C85.0941 210.015 83.3702 211.039 82.473 212.683L82.2922 213.015C81.5064 214.455 79.9966 215.352 78.3558 215.352V215.352C76.4609 215.352 74.7705 216.543 74.1332 218.327L73.7146 219.499C73.1483 221.085 71.6463 222.143 69.9626 222.143V222.143C67.7622 222.143 65.9784 223.927 65.9784 226.128L65.9784 226.528C65.9784 228.027 65.2125 229.423 63.9477 230.228L63.3101 230.633C61.6483 231.691 60.6419 233.524 60.6419 235.494L60.6419 236.053C60.6419 237.697 59.9387 239.263 58.7095 240.356V240.356C57.1994 241.698 56.5034 243.734 56.8758 245.72L57.1453 247.157C57.518 249.145 57.0263 251.198 55.7931 252.801L55.1204 253.675C53.7655 255.437 53.6117 257.843 54.7314 259.762V259.762C55.6907 261.407 55.7252 263.432 54.8227 265.108L54.4394 265.82C53.4914 267.581 53.6718 269.735 54.8994 271.313V271.313C55.7757 272.44 56.1342 273.885 55.8861 275.29L55.3283 278.451C55.0386 280.093 56.0238 281.691 57.6205 282.17V282.17C58.8673 282.544 59.7758 283.619 59.9372 284.91L60.3136 287.921C60.5151 289.533 61.6025 290.897 63.1293 291.452L63.3912 291.547C64.9444 292.112 65.9784 293.588 65.9784 295.241L65.9784 295.309C65.9784 297.073 67.1785 298.61 68.8892 299.037L69.5301 299.198C70.8641 299.531 71.8 300.73 71.8 302.105V302.105C71.8 303.76 73.1417 305.102 74.7967 305.102L76.6112 305.102C78.241 305.102 79.5622 306.423 79.5622 308.052V308.052C79.5622 309.991 81.4001 311.403 83.2734 310.904L84.295 310.631C85.7468 310.244 87.2591 311.003 87.8171 312.398V312.398C88.3686 313.776 89.8537 314.536 91.2943 314.176L92.0635 313.983C93.5972 313.6 95.2101 314.186 96.14 315.464L96.3122 315.701C97.5248 317.369 99.8371 317.782 101.553 316.639V316.639C103.134 315.584 105.25 315.844 106.529 317.251L109.155 320.141" stroke="#888888"/>
<path d="M109.155 226.994C81.5027 226.994 60.6419 251.251 60.6419 271.627M109.155 243.974C79.5622 243.974 64.523 262.409 61.6122 276.478M109.155 260.469C86.3541 260.469 68.4041 272.597 64.523 281.815M109.155 275.508C81.0176 275.508 74.2257 283.755 69.3743 290.547M109.155 292.488C92.1757 292.488 83.9284 295.398 79.5622 301.22" stroke="#888888"/>
<line x1="254.908" y1="118.285" x2="109.048" y2="118.285" stroke="#888888" stroke-linecap="round" stroke-dasharray="8 8"/>
</g>
</svg>
