<svg width="29" height="32" viewBox="0 0 29 32" fill="none" xmlns="http://www.w3.org/2000/svg">
<g clip-path="url(#clip0_402_630)">
<path d="M14.505 0.74883C15.2327 0.74883 15.9605 0.938534 16.6085 1.31794L26.1488 6.82933C27.4548 7.58814 28.2523 8.97598 28.2523 10.4836V21.5164C28.2523 23.024 27.4448 24.4218 26.1488 25.1707L16.6085 30.6821C15.9605 31.0615 15.2327 31.2512 14.505 31.2512C13.7772 31.2512 13.0495 31.0615 12.4015 30.6821L2.86112 25.1707C1.55517 24.4119 0.757649 23.024 0.757649 21.5164V10.4836C0.757649 8.97598 1.56514 7.57816 2.86112 6.82933L12.4015 1.31794C13.0495 0.938534 13.7772 0.74883 14.505 0.74883ZM14.505 0C13.6377 0 12.7803 0.229641 12.0227 0.668955L2.4823 6.18034C0.947061 7.06896 0 8.71638 0 10.4836V21.5164C0 23.2836 0.947061 24.941 2.4823 25.8197L12.0227 31.331C12.7803 31.7704 13.6377 32 14.505 32C15.3723 32 16.2296 31.7704 16.9873 31.331L26.5277 25.8197C28.0629 24.931 29.01 23.2836 29.01 21.5164V10.4836C29.01 8.71638 28.0629 7.05897 26.5277 6.18034L16.9873 0.668955C16.2296 0.229641 15.3723 0 14.505 0Z" fill="#888888"/>
<path d="M17.1867 27.9563C15.6813 29.3941 13.3286 29.3941 11.8233 27.9563C10.956 27.1276 9.97904 26.3888 8.88244 25.7598C7.79582 25.1308 6.65934 24.6515 5.50293 24.312C3.49915 23.7329 2.3228 21.6861 2.82126 19.6593C3.11036 18.4911 3.25989 17.263 3.25989 16.005C3.25989 14.747 3.11036 13.5289 2.82126 12.3607C2.3228 10.3339 3.50912 8.28707 5.50293 7.70797C6.65934 7.3685 7.78585 6.88925 8.87248 6.26023C9.9591 5.63122 10.9361 4.89237 11.8034 4.06367C13.3087 2.62591 15.6614 2.62591 17.1667 4.06367C18.034 4.89237 19.011 5.63122 20.1076 6.26023C21.1942 6.88925 22.3307 7.3685 23.4871 7.70797C25.4909 8.28707 26.6673 10.3339 26.1688 12.3607C25.8797 13.5289 25.7302 14.757 25.7302 16.015C25.7302 17.273 25.8797 18.4911 26.1688 19.6593C26.6673 21.6861 25.4809 23.7329 23.4871 24.312C22.3307 24.6515 21.2042 25.1308 20.1176 25.7598C19.0409 26.3788 18.064 27.1176 17.1867 27.9563Z" stroke="#888888" stroke-width="0.75" stroke-miterlimit="10"/>
<path d="M8.23449 18.7307L13.548 9.52511C13.9767 8.78627 15.0334 8.78627 15.4621 9.52511L20.7656 18.7507C21.1943 19.4895 20.6559 20.4081 19.8086 20.4081L10.6968 20.3981C11.2451 19.4197 12.272 18.8106 13.3985 18.8106L18.7419 18.8406C18.8615 18.8406 18.9313 18.7207 18.8715 18.6209L14.7443 11.2424C14.6446 11.0627 14.3754 11.0627 14.2757 11.2424L9.20149 20.3881C8.34415 20.3881 7.81579 19.4596 8.23449 18.7307Z" fill="#888888"/>
</g>
<defs>
<clipPath id="clip0_402_630">
<rect width="29" height="32" fill="white"/>
</clipPath>
</defs>
</svg>
