<svg width="200" height="100" viewBox="0 0 200 100" fill="none" xmlns="http://www.w3.org/2000/svg">
<rect width="200" height="50" rx="10" fill="url(#paint0_linear_603_15)"/>
<rect y="50" width="200" height="50" rx="10" fill="white"/>
<circle cx="100" cy="51.0117" r="31.4355" fill="url(#paint1_linear_603_15)"/>
<path d="M93.8763 42.1592C95.7974 42.9933 97.9056 43.4238 100 43.4238C102.094 43.4238 104.166 42.9933 106.088 42.1592C108.009 41.325 110.009 39.0679 111.168 38.5745C112.361 38.0666 113.685 37.9383 114.938 38.2721C116.192 38.6058 117.271 39.1962 118.08 40.3831C120.144 43.7085 121.253 47.4859 121.282 51.3997C121.31 55.3136 120.258 59.1594 118.243 62.5144C117.733 63.2687 117.155 63.695 116.36 64.1387C111.352 66.85 105.695 68.2742 100 68.2831C94.3052 68.2742 88.6118 66.85 83.6039 64.1387C82.8089 63.695 82.231 63.2687 81.7212 62.5144C79.7054 59.1594 78.6539 55.3136 78.6822 51.3997C78.7105 47.4859 79.8196 43.7085 81.8836 40.3831C82.6924 39.1962 83.7721 38.6058 85.0254 38.2721C86.2786 37.9383 87.6028 38.0666 88.7961 38.5745C89.9551 39.0679 91.9552 41.325 93.8763 42.1592Z" fill="white"/>
<circle cx="89.5576" cy="52.9268" r="7.29883" stroke="#3E3E3E" stroke-width="1.80664"/>
<circle cx="110.659" cy="52.9268" r="7.29883" stroke="#3E3E3E" stroke-width="1.80664"/>
<path d="M103.066 53.2212C102.663 52.8186 102.185 52.4992 101.659 52.2813C101.133 52.0634 100.569 51.9512 99.9999 51.9512C99.4305 51.9512 98.8667 52.0634 98.3406 52.2813C97.8146 52.4992 97.3366 52.8186 96.934 53.2212" stroke="#3E3E3E" stroke-width="1.80664"/>
<ellipse cx="110.695" cy="52.8906" rx="1.44531" ry="2.16797" fill="#3E3E3E"/>
<ellipse cx="89.3047" cy="52.8906" rx="1.44531" ry="2.16797" fill="#3E3E3E"/>
<path d="M96.2422 33.4327L101.851 22.3945L100.069 29.407L103.83 28.8876L98.1557 39.666L99.8712 32.9133L96.2422 33.4327Z" fill="#FCE017"/>
<defs>
<linearGradient id="paint0_linear_603_15" x1="-3.09854e-07" y1="26.087" x2="200" y2="26.087" gradientUnits="userSpaceOnUse">
<stop stop-color="#52EAFF"/>
<stop offset="1" stop-color="#49C8FF"/>
</linearGradient>
<linearGradient id="paint1_linear_603_15" x1="76.6582" y1="29.5127" x2="122.728" y2="75.582" gradientUnits="userSpaceOnUse">
<stop stop-color="#FC8F12"/>
<stop offset="1" stop-color="#F83B00"/>
</linearGradient>
</defs>
</svg>
