<svg width="200" height="100" viewBox="0 0 200 100" fill="none" xmlns="http://www.w3.org/2000/svg">
<mask id="mask0_606_2" style="mask-type:alpha" maskUnits="userSpaceOnUse" x="0" y="0" width="200" height="100">
<rect width="200" height="100" rx="3" fill="#C4C4C4"/>
</mask>
<g mask="url(#mask0_606_2)">
<path d="M125.556 87.1666C100 86.6111 74.1667 78.8333 52.7778 70.2222H194.722C180.185 76.0555 146 87.6111 125.556 87.1666Z" fill="#E1F5FB"/>
<path d="M199.167 -21.4443C178.889 -42.2777 20.5555 -21.4444 -2.76566e-05 -21.4444L-8.88892 84.3889C22.2222 84.3889 26.9445 96.0555 59.1667 96.0555C101.667 96.0555 111.111 72.4445 152.5 72.4445C185.556 72.4445 192.778 84.3889 216.667 84.3889L199.167 -21.4443Z" fill="url(#paint0_linear_606_2)"/>
<path d="M27.2222 46.3526C27.2222 55.3281 34.4663 62.7052 43.5522 62.7052C52.6381 62.7052 59.8823 55.4511 59.8823 46.3526C59.8823 37.2542 52.5154 30 43.5522 30C34.5891 30 27.2222 37.2542 27.2222 46.3526ZM45.1484 40.6968L49.2002 44.7542C49.6914 45.246 49.8141 45.7378 49.8141 46.3526C49.8141 46.9674 49.5686 47.5821 49.2002 47.951L45.1484 52.0084C44.9028 52.2543 44.5345 52.2543 44.2889 52.0084C44.0434 51.7625 44.0434 51.3936 44.2889 51.1477L48.3407 47.0903C48.7091 46.7215 48.7091 45.9838 48.3407 45.6149L44.2889 41.5575C44.0434 41.3116 44.0434 40.9427 44.2889 40.6968C44.5345 40.4509 44.9028 40.4509 45.1484 40.6968ZM43.4295 32.7049V39.0984C43.4295 39.5903 43.3067 39.9591 42.9383 40.328L38.2726 45.1231C37.6587 45.7378 37.6587 46.8444 38.2726 47.4592L42.9383 52.1314C43.3067 52.5002 43.4295 52.8691 43.4295 53.3609V59.7544C43.4295 60.615 42.6928 61.3527 41.8333 61.2298C34.3435 60.4921 28.45 54.0986 28.45 46.3526C28.45 38.6066 34.3435 32.0902 41.8333 31.3525C42.6928 31.2295 43.4295 31.8443 43.4295 32.7049Z" fill="white"/>
<path d="M137.236 48.3198H135.885C136.131 48.5657 136.376 48.9346 136.499 49.1805C137.113 50.2871 137.358 51.3936 137.358 52.6231C137.358 53.9756 136.99 55.2051 136.376 56.3117C135.762 57.4183 134.903 58.156 133.798 58.7707C132.815 59.3855 131.588 59.6314 130.36 59.6314H127.045V48.3198H125.94V60.738H130.728C132.079 60.738 133.429 60.3691 134.657 59.7544C135.885 59.1396 136.867 58.156 137.481 56.9265C138.218 55.6969 138.586 54.3445 138.586 52.7461C138.586 51.3936 138.341 50.1641 137.727 48.8116C137.481 48.6887 137.358 48.4428 137.236 48.3198Z" fill="white"/>
<path d="M148.163 48.3198H147.058V60.738H148.163V48.3198Z" fill="white"/>
<path d="M121.642 46.5986V44.3854H124.343H124.712L126.185 46.5986H129.746L127.904 43.6477C129.009 43.1559 129.746 42.2952 130.237 41.3116C130.728 40.328 130.973 39.2215 130.973 37.9919C130.973 36.1477 130.359 34.6722 129.132 33.5657C127.904 32.4591 126.185 31.9673 123.975 31.9673H118.572V46.5986H121.642ZM121.642 34.9181H124.466C125.325 34.9181 125.939 35.0411 126.43 35.4099C126.922 35.7788 127.29 36.1477 127.535 36.6395C127.781 37.1313 127.904 37.746 127.904 38.2378C127.904 39.0985 127.658 39.8362 127.044 40.451C126.553 41.0657 125.571 41.4346 124.343 41.4346H121.642V34.9181V34.9181Z" fill="white"/>
<path d="M135.885 46.5986H139.937C139.445 46.1068 138.832 45.615 138.463 44.8773C137.849 43.8937 137.604 42.6642 137.604 41.4346C137.604 40.2051 137.849 39.0986 138.463 37.992C139.077 36.8854 139.814 36.1477 140.796 35.5329C141.778 34.9182 142.883 34.6723 144.111 34.6723C145.339 34.6723 146.444 34.9182 147.426 35.5329C148.409 36.1477 149.268 37.0084 149.882 37.992C150.496 39.0986 150.741 40.2051 150.741 41.4346C150.741 42.6642 150.496 43.7707 149.882 44.8773C149.514 45.4921 149.022 46.1068 148.531 46.5986H152.46C152.46 46.4757 152.583 46.4757 152.583 46.3527C153.443 44.8773 153.934 43.2789 153.934 41.4346C153.934 39.7133 153.443 38.1149 152.583 36.6395C151.724 35.1641 150.496 33.9346 149.022 33.0739C147.549 32.2132 145.953 31.7214 144.111 31.7214C142.392 31.7214 140.673 32.2132 139.2 33.0739C137.726 33.9346 136.499 35.1641 135.639 36.6395C134.78 38.1149 134.289 39.7133 134.289 41.5576C134.289 43.2789 134.78 45.0002 135.639 46.4757C135.762 46.4757 135.762 46.5986 135.885 46.5986Z" fill="white"/>
<path d="M171.983 48.3198H170.509C170.755 48.5657 171.001 48.8116 171.123 49.1805C171.737 50.2871 172.106 51.5166 172.106 52.7461C172.106 54.0986 171.737 55.2051 171.123 56.3117C170.509 57.4183 169.65 58.2789 168.545 58.8937C167.44 59.5085 166.212 59.8773 164.984 59.8773C163.756 59.8773 162.529 59.5085 161.424 58.8937C160.319 58.2789 159.459 57.4183 158.845 56.3117C158.231 55.2051 157.863 53.9756 157.863 52.7461C157.863 51.5166 158.231 50.2871 158.845 49.1805C158.968 48.8116 159.213 48.5657 159.459 48.3198H158.108C157.986 48.4428 157.986 48.4428 157.863 48.5657C157.126 49.7952 156.758 51.1477 156.758 52.7461C156.758 54.3445 157.126 55.6969 157.863 56.9265C158.6 58.156 159.582 59.1396 160.81 59.8773C162.037 60.615 163.388 60.9839 164.984 60.9839C166.458 60.9839 167.808 60.615 169.159 59.8773C170.509 59.1396 171.492 58.156 172.228 56.9265C172.965 55.6969 173.333 54.3445 173.333 52.7461C173.333 51.2707 172.965 49.9182 172.228 48.5657C172.106 48.4428 172.106 48.3198 171.983 48.3198Z" fill="white"/>
<path d="M161.055 46.5985V44.3853H163.756H164.125L165.598 46.5985H169.159L167.317 43.6476C168.422 43.1558 169.159 42.2952 169.65 41.3115C170.141 40.3279 170.387 39.2214 170.387 37.9918C170.387 36.0246 169.773 34.5492 168.422 33.4426C167.194 32.336 165.475 31.8442 163.265 31.8442H157.863V46.4755H161.055V46.5985ZM161.055 34.918H163.879C164.739 34.918 165.353 35.041 165.844 35.4098C166.335 35.7787 166.703 36.1476 166.949 36.6394C167.194 37.1312 167.317 37.623 167.317 38.1148C167.317 38.9755 167.071 39.7132 166.458 40.3279C165.966 40.9427 164.984 41.3115 163.756 41.3115H161.055V34.918Z" fill="white"/>
<path d="M115.257 48.3198V55.3281C115.257 56.3117 115.012 57.0494 114.643 57.7871C114.275 58.5248 113.784 59.0166 113.047 59.3855C112.433 59.7544 111.574 60.0003 110.714 60.0003C109.855 60.0003 109.118 59.7544 108.382 59.3855C107.768 59.0166 107.154 58.5248 106.785 57.7871C106.417 57.0494 106.171 56.3117 106.171 55.3281V48.3198H105.066V55.3281C105.066 56.4347 105.312 57.4183 105.803 58.2789C106.294 59.1396 106.908 59.7544 107.768 60.2462C108.627 60.738 109.487 60.8609 110.592 60.8609C111.697 60.8609 112.556 60.615 113.416 60.2462C114.275 59.7544 114.889 59.1396 115.38 58.2789C115.871 57.4183 116.117 56.4347 116.117 55.3281V48.3198H115.257V48.3198Z" fill="white"/>
<path d="M77.1948 52.6231C76.5809 52.2543 75.8442 51.8854 74.9848 51.6395C74.1253 51.2707 73.5114 51.0248 72.8975 50.7789C72.4063 50.533 71.9152 50.1641 71.5469 49.7952C71.1785 49.4264 71.0557 48.9346 71.0557 48.3198H69.9507V48.4428C69.9507 49.1805 70.1962 49.9182 70.5646 50.41C70.9329 50.9018 71.4241 51.3936 72.038 51.6395C72.6519 52.0084 73.3886 52.2543 74.2481 52.6231C75.1075 52.869 75.7215 53.2379 76.3354 53.4838C76.9493 53.7297 77.3176 54.2215 77.686 54.7133C78.0543 55.2051 78.1771 55.8199 78.1771 56.5576C78.1771 57.2953 77.9315 57.9101 77.5632 58.5248C77.1948 59.0166 76.7037 59.5085 76.0898 59.7544C75.4759 60.0003 74.862 60.1232 74.1253 60.1232C73.3886 60.1232 72.5291 60.0003 71.7924 59.6314C70.9329 59.2625 70.319 58.8937 69.7051 58.5248L69.214 59.3855C70.9329 60.4921 72.5291 60.9839 74.2481 60.9839C75.2303 60.9839 76.0898 60.738 76.8265 60.3691C77.5632 60.0003 78.1771 59.5085 78.5455 58.7707C78.9138 58.033 79.1594 57.2953 79.1594 56.4347C79.1594 55.451 78.9138 54.7133 78.5455 54.0986C78.1771 53.4838 77.686 52.992 77.1948 52.6231Z" fill="white"/>
<path d="M104.084 46.5985V44.3853H106.785H107.154L108.627 46.5985H112.188L110.346 43.6476C111.451 43.1558 112.188 42.2952 112.679 41.3115C113.17 40.3279 113.416 39.2214 113.416 37.9918C113.416 36.0246 112.802 34.5492 111.451 33.4426C110.223 32.336 108.504 31.8442 106.294 31.8442H100.892V46.4755H104.084V46.5985ZM104.084 34.918H106.908C107.768 34.918 108.381 35.041 108.873 35.4098C109.364 35.7787 109.732 36.1476 109.978 36.6394C110.223 37.1312 110.346 37.623 110.346 38.1148C110.346 38.9755 110.1 39.7132 109.486 40.3279C108.995 40.9427 108.013 41.3115 106.785 41.3115H104.084V34.918V34.918Z" fill="white"/>
<path d="M92.1743 48.3198H91.0692V60.738H92.1743V48.3198Z" fill="white"/>
<path d="M95.8578 48.3198H87.5085V49.4264H95.8578V48.3198Z" fill="white"/>
<path d="M71.3012 46.5986V40.451L75.7213 46.5986H79.8959L84.5617 40.0821V46.5986H87.5084V31.3525L77.8086 44.7543L68.3544 31.3525V46.5986H71.3012Z" fill="white"/>
<path d="M95.8578 31.9673H92.7882V46.5986H95.8578V31.9673Z" fill="white"/>
</g>
<defs>
<linearGradient id="paint0_linear_606_2" x1="56.1111" y1="95.7777" x2="201.667" y2="-22.0001" gradientUnits="userSpaceOnUse">
<stop stop-color="#85D8EE"/>
<stop offset="1" stop-color="#B4E7F5"/>
</linearGradient>
</defs>
</svg>
