<svg xmlns="http://www.w3.org/2000/svg" viewBox="0 0 432.29 498.75"><defs><style>.cls-1,.cls-2,.cls-3,.cls-5{fill:#fff;}.cls-2{font-size:10px;letter-spacing:1.2em;}.cls-2,.cls-5{font-family:Gotham-Light, Gotham;}.cls-3{font-size:6px;font-family:Gotham-Book, Gotham;letter-spacing:0.57em;}.cls-4{letter-spacing:0.6em;}.cls-5{font-size:14px;letter-spacing:0.4em;}.cls-6{letter-spacing:0.33em;}.cls-7{letter-spacing:0.4em;}.cls-8{fill:none;stroke:#fff;stroke-miterlimit:10;}</style></defs><title>portfolio-logo</title><g id="Layer_2" data-name="Layer 2"><g id="Layer_1-2" data-name="Layer 1"><polygon class="cls-1" points="305.84 251.3 160.91 251.3 169.63 236.3 279.79 236.3 216.15 126.73 143.8 251.3 126.45 251.3 216.15 96.86 305.84 251.3"/><text class="cls-2" transform="translate(164.65 281.46)">DESIGN</text><text class="cls-3" transform="translate(208.32 306.21)">B<tspan class="cls-4" x="7.75" y="0">Y</tspan></text><text class="cls-5" transform="translate(87.78 334.83)">ADRIAN <tspan class="cls-6" x="101.49" y="0">P</tspan><tspan x="115.46" y="0">AP</tspan><tspan class="cls-6" x="147.07" y="0">P</tspan><tspan class="cls-7" x="161.04" y="0">ALARDO</tspan></text><line class="cls-8" x1="62.14" y1="304.4" x2="192.14" y2="304.4"/><line class="cls-8" x1="237.89" y1="304.4" x2="366.22" y2="304.4"/><polygon class="cls-8" points="431.76 125.87 216.81 1 1.2 124.72 0.54 373.3 215.49 498.17 431.1 374.45 431.76 125.87"/><polygon class="cls-8" points="274.21 35.18 59.5 92.1 1.44 306.5 158.09 463.99 372.8 407.07 430.86 192.67 274.21 35.18"/><polygon class="cls-8" points="1.59 192.09 59.08 406.65 273.64 464.14 430.71 307.08 373.22 92.52 158.66 35.02 1.59 192.09"/><polygon class="cls-8" points="217.14 1 0.87 373.3 431.43 374.45 217.14 1"/></g></g></svg>