<svg width="200" height="100" viewBox="0 0 200 100" fill="none" xmlns="http://www.w3.org/2000/svg">
<rect width="190" height="90" rx="10" fill="white"/>
<circle cx="42.5" cy="55" r="2.5" fill="#F29400"/>
<circle cx="42.5" cy="35" r="2.5" fill="#F29400"/>
<circle cx="49.5" cy="45" r="2.5" fill="#F29400"/>
<g clip-path="url(#clip0_607_54)">
<path d="M140.067 62.8008C140.265 62.9336 140.483 63 140.726 63C141.041 63 141.309 62.8911 141.528 62.6733C141.749 62.4555 141.858 62.1978 141.858 61.903C141.858 61.6985 141.793 61.4939 141.666 61.2921C141.538 61.0875 141.301 60.8564 140.955 60.5961C140.663 60.3757 140.491 60.2402 140.439 60.1897C140.343 60.0914 140.278 60.0011 140.241 59.9188C140.205 59.8364 140.187 59.7488 140.187 59.6611C140.187 59.515 140.239 59.3929 140.34 59.2919C140.442 59.191 140.575 59.1432 140.736 59.1432C140.861 59.1432 140.976 59.175 141.082 59.2388C141.189 59.3025 141.317 59.438 141.468 59.6399L141.793 59.3875C141.611 59.1325 141.436 58.9572 141.272 58.8616C141.108 58.766 140.934 58.7182 140.744 58.7182C140.567 58.7182 140.403 58.7607 140.252 58.843C140.101 58.928 139.983 59.0422 139.9 59.1883C139.817 59.3344 139.775 59.4964 139.775 59.6718C139.775 59.8949 139.845 60.1021 139.986 60.296C140.067 60.4102 140.275 60.5961 140.608 60.8538C140.939 61.1088 141.168 61.3266 141.293 61.5072C141.384 61.6374 141.429 61.7728 141.429 61.9083C141.429 62.0278 141.397 62.1421 141.335 62.2483C141.272 62.3546 141.184 62.4396 141.067 62.5033C140.95 62.5671 140.822 62.5989 140.689 62.5989C140.377 62.5989 140.101 62.3758 139.861 61.9269L139.523 62.1341C139.687 62.4475 139.869 62.6707 140.067 62.8008ZM138.083 61.1646H136.716L137.4 59.6904L138.083 61.1646ZM137.354 58.8218L135.466 62.8964H135.911L136.533 61.555H138.254L138.882 62.8964H139.314L137.45 58.8218H137.354ZM134.278 58.9466C133.979 58.7952 133.64 58.7208 133.268 58.7208C132.651 58.7208 132.138 58.9254 131.727 59.3318C131.318 59.7382 131.112 60.2402 131.112 60.8378C131.112 61.4036 131.281 61.8897 131.62 62.2882C132.023 62.7636 132.575 63 133.273 63C133.64 63 133.974 62.9283 134.271 62.7875C134.567 62.6467 134.817 62.4449 135.015 62.1872L134.7 61.9428C134.323 62.3891 133.857 62.6122 133.297 62.6122C132.789 62.6122 132.367 62.4449 132.034 62.1128C131.701 61.7808 131.534 61.3664 131.534 60.8697C131.534 60.5403 131.609 60.2455 131.758 59.9825C131.906 59.7196 132.117 59.5097 132.388 59.353C132.659 59.1963 132.956 59.1193 133.273 59.1193C133.565 59.1193 133.833 59.1777 134.075 59.2972C134.32 59.4168 134.528 59.5921 134.7 59.8205L135.015 59.5735C134.825 59.3079 134.578 59.098 134.278 58.9466ZM129.982 62.8991H130.38V58.8218H129.982V62.8991ZM128.164 59.2229V62.8991H128.571V59.2229H129.461V58.8244H127.271V59.2229H128.164ZM125.035 62.8008C125.233 62.9336 125.451 63 125.696 63C126.011 63 126.279 62.8911 126.498 62.6733C126.717 62.4555 126.829 62.1978 126.829 61.903C126.829 61.6985 126.764 61.4939 126.636 61.2921C126.508 61.0875 126.271 60.8564 125.925 60.5961C125.634 60.3757 125.462 60.2402 125.41 60.1897C125.313 60.0914 125.248 60.0011 125.212 59.9188C125.175 59.8364 125.157 59.7488 125.157 59.6611C125.157 59.515 125.209 59.3929 125.311 59.2919C125.412 59.191 125.545 59.1432 125.706 59.1432C125.831 59.1432 125.946 59.175 126.053 59.2388C126.159 59.3025 126.287 59.438 126.438 59.6399L126.764 59.3875C126.581 59.1325 126.407 58.9572 126.243 58.8616C126.079 58.766 125.902 58.7182 125.714 58.7182C125.537 58.7182 125.373 58.7607 125.222 58.843C125.071 58.928 124.954 59.0422 124.871 59.1883C124.787 59.3344 124.746 59.4964 124.746 59.6718C124.746 59.8949 124.816 60.1021 124.956 60.296C125.037 60.4102 125.246 60.5961 125.579 60.8538C125.91 61.1088 126.139 61.3266 126.264 61.5072C126.355 61.6374 126.399 61.7728 126.399 61.9083C126.399 62.0278 126.368 62.1421 126.308 62.2483C126.245 62.3546 126.157 62.4396 126.04 62.5033C125.923 62.5671 125.795 62.5989 125.662 62.5989C125.35 62.5989 125.074 62.3758 124.834 61.9269L124.496 62.1341C124.654 62.4475 124.837 62.6707 125.035 62.8008ZM123.381 58.5004H123.756L124.558 57.6477H123.972L123.381 58.5004ZM123.587 62.8991H123.985V58.8218H123.587V62.8991ZM121.772 58.9068C121.473 58.7819 121.155 58.7208 120.816 58.7208C120.397 58.7208 120.025 58.8138 119.691 59.0024C119.361 59.191 119.1 59.4486 118.91 59.7833C118.72 60.1154 118.624 60.4739 118.624 60.8618C118.624 61.3797 118.791 61.8366 119.121 62.2324C119.553 62.745 120.137 63.0027 120.876 63.0027C121.486 63.0027 121.97 62.8167 122.332 62.4475C122.694 62.0783 122.879 61.5763 122.881 60.9468H121.16V61.3399H122.433C122.381 61.7171 122.212 62.0225 121.928 62.2589C121.644 62.4953 121.295 62.6149 120.887 62.6149C120.548 62.6149 120.236 62.5352 119.952 62.3785C119.668 62.2217 119.444 62.0039 119.283 61.7277C119.121 61.4514 119.04 61.1619 119.04 60.8538C119.04 60.5563 119.119 60.2694 119.275 60.0011C119.431 59.7329 119.65 59.5204 119.934 59.3636C120.217 59.2069 120.514 59.1299 120.829 59.1299C121.082 59.1299 121.34 59.1883 121.605 59.3025C121.871 59.4194 122.116 59.5868 122.337 59.8099L122.647 59.5124C122.363 59.2308 122.071 59.0316 121.772 58.9068ZM116.733 59.353C117.002 59.5097 117.21 59.7196 117.358 59.9799C117.507 60.2402 117.58 60.535 117.58 60.8564C117.58 61.1805 117.507 61.478 117.358 61.7436C117.21 62.0093 117.004 62.2191 116.741 62.3732C116.478 62.5272 116.192 62.6042 115.882 62.6042C115.419 62.6042 115.02 62.4369 114.692 62.1049C114.364 61.7702 114.2 61.3611 114.2 60.8777C114.2 60.551 114.275 60.2535 114.424 59.9879C114.572 59.7222 114.781 59.5097 115.044 59.353C115.309 59.1963 115.588 59.1166 115.885 59.1166C116.181 59.1166 116.465 59.1936 116.733 59.353ZM114.82 59.005C114.499 59.1936 114.247 59.4566 114.059 59.7913C113.874 60.126 113.781 60.4872 113.781 60.8803C113.781 61.4674 113.984 61.9694 114.393 62.3811C114.801 62.7955 115.301 63.0027 115.892 63.0027C116.478 63.0027 116.973 62.7955 117.379 62.3785C117.785 61.9641 117.989 61.4568 117.989 60.8618C117.989 60.2588 117.785 59.7514 117.377 59.3397C116.968 58.928 116.463 58.7208 115.859 58.7208C115.489 58.7208 115.142 58.8138 114.82 59.005ZM111.39 62.8991H113.328V62.506H111.791V58.8218H111.393V62.8991H111.39ZM107.214 62.8008C107.412 62.9336 107.63 63 107.872 63C108.188 63 108.456 62.8911 108.674 62.6733C108.896 62.4555 109.005 62.1978 109.005 61.903C109.005 61.6985 108.94 61.4939 108.812 61.2921C108.685 61.0875 108.448 60.8564 108.102 60.5961C107.81 60.3757 107.638 60.2402 107.586 60.1897C107.49 60.0914 107.425 60.0011 107.388 59.9188C107.352 59.8364 107.333 59.7488 107.333 59.6611C107.333 59.515 107.386 59.3929 107.487 59.2919C107.589 59.191 107.721 59.1432 107.883 59.1432C108.008 59.1432 108.122 59.175 108.229 59.2388C108.336 59.3025 108.464 59.438 108.615 59.6399L108.94 59.3875C108.758 59.1325 108.583 58.9572 108.419 58.8616C108.255 58.766 108.081 58.7182 107.891 58.7182C107.714 58.7182 107.55 58.7607 107.399 58.843C107.248 58.928 107.13 59.0422 107.047 59.1883C106.964 59.3344 106.922 59.4964 106.922 59.6718C106.922 59.8949 106.992 60.1021 107.133 60.296C107.214 60.4102 107.422 60.5961 107.755 60.8538C108.086 61.1088 108.315 61.3266 108.44 61.5072C108.531 61.6374 108.576 61.7728 108.576 61.9083C108.576 62.0278 108.544 62.1421 108.482 62.2483C108.419 62.3546 108.331 62.4396 108.214 62.5033C108.096 62.5671 107.971 62.5989 107.836 62.5989C107.524 62.5989 107.248 62.3758 107.008 61.9269L106.669 62.1341C106.834 62.4475 107.016 62.6707 107.214 62.8008ZM104.102 62.8991H106.375V62.5007H104.5V60.8989H106.375V60.5005H104.5V59.2229H106.391V58.8244H104.102V62.8991ZM100.399 62.8991V59.8125L103.037 62.8991H103.126V58.8218H102.732V61.9455L100.074 58.8218H99.9879V62.8964H100.399V62.8991ZM97.9231 59.353C98.1913 59.5097 98.3996 59.7196 98.548 59.9799C98.6964 60.2402 98.7693 60.535 98.7693 60.8564C98.7693 61.1805 98.6964 61.478 98.548 61.7436C98.3996 62.0093 98.1939 62.2191 97.9309 62.3732C97.6679 62.5272 97.3815 62.6042 97.069 62.6042C96.6055 62.6042 96.2071 62.4369 95.879 62.1049C95.5509 61.7702 95.3869 61.3611 95.3869 60.8777C95.3869 60.551 95.4624 60.2535 95.6108 59.9879C95.7592 59.7222 95.9676 59.5097 96.2305 59.353C96.4961 59.1963 96.7748 59.1166 97.0716 59.1166C97.371 59.1166 97.6549 59.1936 97.9231 59.353ZM96.0118 59.005C95.6915 59.1936 95.439 59.4566 95.2515 59.7913C95.0666 60.126 94.9729 60.4872 94.9729 60.8803C94.9729 61.4674 95.176 61.9694 95.5848 62.3811C95.9936 62.7955 96.4935 63.0027 97.0846 63.0027C97.6705 63.0027 98.1652 62.7955 98.5714 62.3785C98.9776 61.9641 99.1807 61.4568 99.1807 60.8618C99.1807 60.2588 98.9776 59.7514 98.5688 59.3397C98.16 58.928 97.6549 58.7208 97.0508 58.7208C96.6784 58.7208 96.3321 58.8138 96.0118 59.005ZM93.835 62.8991H94.2334V58.8218H93.835V62.8991ZM92.3534 58.9466C92.0513 58.7952 91.7154 58.7208 91.3431 58.7208C90.726 58.7208 90.213 58.9254 89.8016 59.3318C89.3928 59.7382 89.1871 60.2402 89.1871 60.8378C89.1871 61.4036 89.3563 61.8897 89.6948 62.2882C90.0984 62.7636 90.6504 63 91.3483 63C91.7154 63 92.0487 62.9283 92.3456 62.7875C92.6424 62.6467 92.8924 62.4449 93.0903 62.1872L92.7752 61.9428C92.3976 62.3891 91.9316 62.6122 91.3717 62.6122C90.864 62.6122 90.4421 62.4449 90.1088 62.1128C89.7755 61.7808 89.6089 61.3664 89.6089 60.8697C89.6089 60.5403 89.6844 60.2455 89.8328 59.9825C89.9812 59.7196 90.1922 59.5097 90.463 59.353C90.7338 59.1963 91.0306 59.1193 91.3483 59.1193C91.6399 59.1193 91.9081 59.1777 92.1503 59.2972C92.3924 59.4168 92.6033 59.5921 92.7752 59.8205L93.0903 59.5735C92.9002 59.3079 92.6528 59.098 92.3534 58.9466ZM85.7421 61.2814C85.7421 61.6958 85.7656 61.9827 85.815 62.1394C85.8932 62.3971 86.0468 62.6069 86.2759 62.7636C86.5051 62.9203 86.7811 63 87.104 63C87.4008 63 87.6534 62.9177 87.8643 62.7503C88.0726 62.583 88.2132 62.3891 88.2835 62.1633C88.3538 61.9402 88.3877 61.6453 88.3877 61.2814V58.8218H87.9893V61.2814C87.9893 61.6028 87.9763 61.8153 87.9476 61.9189C87.9086 62.0624 87.8487 62.1846 87.768 62.2882C87.6872 62.3891 87.5857 62.4688 87.4633 62.5272C87.3409 62.5857 87.2159 62.6122 87.0831 62.6122C86.9321 62.6122 86.7785 62.575 86.6301 62.5033C86.479 62.4289 86.3697 62.3386 86.2968 62.2324C86.2239 62.1235 86.1796 61.9907 86.1588 61.8286C86.1483 61.7569 86.1431 61.5736 86.1431 61.2841V58.8244H85.7447V61.2814H85.7421ZM83.1591 62.8991H85.0964V62.506H83.5601V58.8218H83.1617V62.8991H83.1591ZM81.0994 59.353C81.3676 59.5097 81.5759 59.7196 81.7244 59.9799C81.8728 60.2402 81.9457 60.535 81.9457 60.8564C81.9457 61.1805 81.8728 61.478 81.7244 61.7436C81.5759 62.0093 81.3702 62.2191 81.1072 62.3732C80.8443 62.5272 80.5552 62.6042 80.2454 62.6042C79.7819 62.6042 79.3835 62.4369 79.0554 62.1049C78.7273 61.7702 78.5607 61.3611 78.5607 60.8777C78.5607 60.551 78.6336 60.2535 78.7846 59.9879C78.933 59.7222 79.1387 59.5097 79.4043 59.353C79.6699 59.1963 79.9485 59.1166 80.2454 59.1166C80.5474 59.1166 80.8312 59.1936 81.0994 59.353ZM79.1882 59.005C78.8679 59.1936 78.6153 59.4566 78.4279 59.7913C78.243 60.126 78.1492 60.4872 78.1492 60.8803C78.1492 61.4674 78.3523 61.9694 78.7612 62.3811C79.17 62.7955 79.6699 63.0027 80.261 63.0027C80.8469 63.0027 81.3416 62.7955 81.7478 62.3785C82.154 61.9641 82.3571 61.4568 82.3571 60.8618C82.3571 60.2588 82.154 59.7514 81.7452 59.3397C81.339 58.928 80.8312 58.7208 80.2271 58.7208C79.8548 58.7208 79.5085 58.8138 79.1882 59.005ZM75.6886 62.8008C75.8865 62.9336 76.1052 63 76.3474 63C76.6624 63 76.9306 62.8911 77.1494 62.6733C77.3681 62.4555 77.48 62.1978 77.48 61.903C77.48 61.6985 77.4149 61.4939 77.2874 61.2921C77.1598 61.0875 76.9202 60.8564 76.5765 60.5961C76.2849 60.3757 76.113 60.2402 76.0609 60.1897C75.9646 60.0914 75.8995 60.0011 75.863 59.9188C75.8266 59.8364 75.8084 59.7488 75.8084 59.6611C75.8084 59.515 75.8604 59.3929 75.962 59.2919C76.0635 59.191 76.1963 59.1432 76.3578 59.1432C76.4828 59.1432 76.5973 59.175 76.7041 59.2388C76.8108 59.3025 76.9384 59.438 77.0895 59.6399L77.4149 59.3875C77.2327 59.1325 77.0582 58.9572 76.8942 58.8616C76.7301 58.766 76.5531 58.7182 76.3656 58.7182C76.1885 58.7182 76.0245 58.7607 75.8735 58.843C75.7224 58.928 75.6053 59.0422 75.5219 59.1883C75.4386 59.3344 75.3969 59.4964 75.3969 59.6718C75.3969 59.8949 75.4672 60.1021 75.6079 60.296C75.6886 60.4102 75.8969 60.5961 76.2302 60.8538C76.5609 61.1088 76.79 61.3266 76.915 61.5072C77.0061 61.6374 77.0504 61.7728 77.0504 61.9083C77.0504 62.0278 77.0192 62.1421 76.9593 62.2483C76.8968 62.3546 76.8082 62.4396 76.6911 62.5033C76.5739 62.5671 76.4463 62.5989 76.3135 62.5989C76.001 62.5989 75.725 62.3758 75.4855 61.9269L75.147 62.1341C75.3084 62.4475 75.4907 62.6707 75.6886 62.8008Z" fill="#414141"/>
<path d="M135.786 54.6142H137.439V49.06C137.439 47.4211 137.598 46.2046 137.919 45.4104C138.236 44.6161 138.728 43.9813 139.395 43.5138C140.059 43.0437 140.775 42.8099 141.538 42.8099C142.199 42.8099 142.77 42.9799 143.251 43.3226C143.73 43.6652 144.069 44.1168 144.262 44.6852C144.454 45.251 144.551 46.3268 144.551 47.9072V54.6195H146.204V49.4824C146.204 47.6018 146.358 46.2604 146.662 45.4582C146.967 44.656 147.454 44.0132 148.115 43.5297C148.779 43.049 149.511 42.8072 150.31 42.8072C150.969 42.8072 151.537 42.9693 152.011 43.288C152.485 43.6094 152.821 44.0344 153.018 44.5604C153.214 45.0863 153.313 46.0532 153.313 47.4583V54.6142H155.003V47.4583C155.003 45.8194 154.839 44.5896 154.508 43.7715C154.177 42.9533 153.672 42.3132 152.995 41.8563C152.315 41.3994 151.532 41.171 150.644 41.171C149.693 41.171 148.805 41.4366 147.98 41.9732C147.155 42.5071 146.467 43.288 145.918 44.316C145.657 43.5457 145.35 42.9533 144.996 42.539C144.642 42.1246 144.184 41.7952 143.624 41.5455C143.064 41.2958 142.473 41.171 141.85 41.171C140.929 41.171 140.049 41.4287 139.213 41.9413C138.606 42.3265 138.015 42.9374 137.439 43.7715V41.5057H135.786V54.6142ZM121.316 46.7358C121.655 45.5299 122.155 44.6268 122.819 44.0238C123.725 43.1951 124.808 42.7833 126.071 42.7833C126.836 42.7833 127.566 42.948 128.258 43.2774C128.951 43.6068 129.511 44.0397 129.933 44.579C130.354 45.1182 130.675 45.8354 130.896 46.7358H121.316ZM129.487 52.1253C129.052 52.5105 128.526 52.816 127.909 53.0497C127.29 53.2835 126.654 53.3977 126.001 53.3977C124.644 53.3977 123.506 52.9116 122.584 51.9367C121.663 50.9619 121.183 49.7161 121.152 48.1914H132.716C132.7 46.4011 132.227 44.9057 131.297 43.7104C129.99 42.0157 128.24 41.1683 126.048 41.1683C123.92 41.1683 122.222 41.9944 120.952 43.6493C119.952 44.9508 119.449 46.433 119.449 48.0958C119.449 49.8622 120.04 51.448 121.223 52.8478C122.405 54.2503 124.045 54.9489 126.141 54.9489C127.086 54.9489 127.935 54.8028 128.683 54.508C129.433 54.2158 130.104 53.7881 130.703 53.225C131.302 52.6619 131.831 51.9235 132.286 51.0071L130.893 50.2607C130.391 51.1213 129.922 51.7428 129.487 52.1253ZM113.341 44.324C114.32 45.344 114.809 46.611 114.809 48.1277C114.809 49.1238 114.59 50.0163 114.156 50.8105C113.718 51.6047 113.096 52.2342 112.286 52.6991C111.476 53.1639 110.62 53.3977 109.713 53.3977C108.818 53.3977 107.977 53.1639 107.195 52.6938C106.414 52.2236 105.789 51.5675 105.326 50.7255C104.862 49.8835 104.631 49.0016 104.631 48.0772C104.631 47.1475 104.86 46.263 105.321 45.429C105.782 44.5949 106.401 43.9468 107.18 43.4846C107.958 43.0224 108.807 42.794 109.729 42.794C111.156 42.7966 112.362 43.3066 113.341 44.324ZM114.702 36.4456V43.9149C114.057 42.9985 113.307 42.3132 112.453 41.8537C111.599 41.3968 110.643 41.1683 109.588 41.1683C107.76 41.1683 106.198 41.8377 104.899 43.1791C103.6 44.5205 102.951 46.1355 102.951 48.0241C102.951 49.9525 103.594 51.5888 104.883 52.9328C106.17 54.2769 107.724 54.9516 109.542 54.9516C110.565 54.9516 111.507 54.7338 112.369 54.3008C113.231 53.8678 114.01 53.2197 114.702 52.3617V54.6142H116.332V36.4456H114.702ZM88.7548 54.6142H90.4083V49.8064C90.4083 48.0799 90.4864 46.8899 90.6452 46.2391C90.8978 45.243 91.4186 44.4063 92.2102 43.7316C93.0017 43.0569 93.8975 42.7196 94.8974 42.7196C95.7723 42.7196 96.4805 42.9374 97.0247 43.3757C97.5689 43.814 97.9361 44.4674 98.1262 45.3333C98.2485 45.8407 98.311 46.8474 98.311 48.3588V54.6116H99.9645V47.8647C99.9645 46.0824 99.7874 44.7676 99.4333 43.9255C99.0792 43.0835 98.5298 42.4115 97.7851 41.9121C97.0403 41.4127 96.1889 41.1657 95.2281 41.1657C94.2828 41.1657 93.4105 41.3888 92.6059 41.8351C91.804 42.2813 91.0697 42.9533 90.4083 43.8538V41.5057H88.7548V54.6142ZM81.8181 44.324C82.7971 45.344 83.2867 46.611 83.2867 48.1277C83.2867 49.1238 83.068 50.0163 82.6331 50.8105C82.1957 51.6047 81.5733 52.2342 80.7635 52.6991C79.9537 53.1639 79.097 53.3977 78.1909 53.3977C77.2952 53.3977 76.4541 53.1639 75.6729 52.6938C74.8918 52.2236 74.2669 51.5675 73.8034 50.7255C73.3399 49.8835 73.1081 49.0016 73.1081 48.0772C73.1081 47.1475 73.3373 46.263 73.7982 45.429C74.259 44.5949 74.8788 43.9468 75.6573 43.4846C76.4359 43.0224 77.2847 42.794 78.2065 42.794C79.6334 42.7966 80.839 43.3066 81.8181 44.324ZM83.1799 41.5057V43.9149C82.5342 42.9985 81.7842 42.3132 80.9302 41.8537C80.0761 41.3968 79.1205 41.1683 78.0659 41.1683C76.238 41.1683 74.6757 41.8377 73.3763 43.1791C72.077 44.5205 71.4286 46.1355 71.4286 48.0241C71.4286 49.9525 72.0718 51.5888 73.3607 52.9328C74.647 54.2769 76.2015 54.9516 78.019 54.9516C79.0424 54.9516 79.985 54.7338 80.8468 54.3008C81.7087 53.8678 82.4873 53.2197 83.1799 52.3617V54.6142H84.8099V41.5057H83.1799ZM65.8746 38.6263V54.6142H67.6452V38.6263H71.5198V36.8918H62V38.6263H65.8746Z" fill="#414141"/>
<path d="M85.0286 37.6568C82.1435 37.6568 79.8052 35.2715 79.8052 32.3284C79.8052 29.3853 82.1435 27 85.0286 27C87.9136 27 90.2519 29.3853 90.2519 32.3284C90.2519 35.2715 87.9136 37.6568 85.0286 37.6568Z" fill="#F29400"/>
<path d="M77.5139 39.7022C75.6574 39.7022 74.1523 38.1669 74.1523 36.273C74.1523 34.3791 75.6574 32.8438 77.5139 32.8438C79.3705 32.8438 80.8755 34.3791 80.8755 36.273C80.8755 38.1669 79.3705 39.7022 77.5139 39.7022Z" fill="#F29400"/>
</g>
<rect x="10.5" y="10.5" width="189" height="89" rx="9.5" stroke="#414141"/>
<defs>
<clipPath id="clip0_607_54">
<rect width="93" height="36" fill="white" transform="translate(62 27)"/>
</clipPath>
</defs>
</svg>
