<svg width="31" height="30" viewBox="0 0 31 30" fill="none" xmlns="http://www.w3.org/2000/svg">
<path d="M17.6749 5.2877C16.6249 4.0377 15.7124 2.7877 15.5374 2.5127H15.4999C15.3249 2.7752 14.4124 4.0377 13.3624 5.2877C4.36244 16.7752 14.7874 24.5252 14.7874 24.5252L14.8749 24.5877C14.9499 25.7752 15.1499 27.5002 15.1499 27.5002H15.9249C15.9249 27.5002 16.1124 25.7877 16.1874 24.5877L16.2749 24.5127C16.2749 24.5127 26.6749 16.7752 17.6749 5.2877ZM15.4999 24.3502C15.2809 24.1702 15.0799 23.9693 14.8999 23.7502L15.4999 11.2502L16.0624 23.7502C15.8938 23.9671 15.7055 24.1679 15.4999 24.3502Z" fill="#6F3D58"/>
</svg>
