<svg width="31" height="30" viewBox="0 0 31 30" fill="none" xmlns="http://www.w3.org/2000/svg">
<path d="M8.44625 11.25C5.15 12.1 3 13.5563 3 15.2188C3 17.8525 8.50625 20 15.3125 20C16.2375 20 16.8875 19.9512 17.75 19.8787" stroke="#6F3D58" stroke-width="2" stroke-linecap="round" stroke-linejoin="round"/>
<path d="M12.7961 19.8748C12.2799 19.1298 11.7886 18.4585 11.3211 17.6248C7.8824 11.4998 6.96115 5.41229 9.28365 4.03354C10.7211 3.16229 13.0924 4.34979 15.5011 6.85104" stroke="#6F3D58" stroke-width="2" stroke-linecap="round" stroke-linejoin="round"/>
<path d="M8.53615 19.2338C7.65865 22.5938 7.83615 25.1287 9.23615 25.9775C11.4649 27.3275 15.9699 23.53 19.2899 17.4725C19.7399 16.635 20.1437 15.8112 20.4999 15" stroke="#6F3D58" stroke-width="2" stroke-linecap="round" stroke-linejoin="round"/>
<path d="M15.5 23.15C17.91 25.65 20.2713 26.8375 21.7225 25.9663C24.035 24.5888 23.1238 18.5012 19.6813 12.375C19.2013 11.5287 18.71 10.87 18.2062 10.125" stroke="#6F3D58" stroke-width="2" stroke-linecap="round" stroke-linejoin="round"/>
<path d="M22.575 18.75C25.84 17.8913 28 16.4375 28 14.78C28 12.1425 22.49 10 15.6937 10C14.76 10 14.1113 10.0362 13.25 10.1087" stroke="#6F3D58" stroke-width="2" stroke-linecap="round" stroke-linejoin="round"/>
<path d="M10.5 14.9997C10.8562 14.1747 11.2588 13.3647 11.71 12.5272C15.0188 6.4722 19.5262 2.6647 21.7675 4.02595C23.155 4.8747 23.345 7.40845 22.4675 10.7672M15.825 15.0184H15.8125C15.8 15.1809 15.6625 15.3184 15.4875 15.3184C15.4038 15.3143 15.3248 15.2784 15.2668 15.218C15.2087 15.1576 15.1759 15.0772 15.175 14.9934C15.175 14.8184 15.3125 14.6809 15.475 14.6809H15.4625C15.625 14.6684 15.775 14.8184 15.775 14.9809" stroke="#6F3D58" stroke-width="2" stroke-linecap="round" stroke-linejoin="round"/>
</svg>
