<svg width="31" height="30" viewBox="0 0 31 30" fill="none" xmlns="http://www.w3.org/2000/svg">
<path d="M6.57636 7.66164C6.47797 7.68311 6.39835 7.73494 6.33013 7.82859C6.2595 7.92999 6.23462 8.0971 6.27074 8.20738C6.3014 8.30377 6.46818 8.4993 6.65116 8.63203C6.41151 8.94964 6.17781 9.27176 5.95019 9.59822C4.72111 11.3892 4.00056 13.0277 3.90906 14.2089C3.85962 14.8475 3.9829 15.294 4.27504 15.6411C4.49126 15.897 4.74439 16.0425 5.15194 16.1297C5.4863 16.2012 5.99818 16.1978 6.51472 16.1184C6.19 16.587 5.72627 17.3055 5.48726 17.7143C5.09271 18.3936 4.68853 19.2614 4.53668 19.7583C4.2691 20.624 4.23491 21.3351 4.41308 22.0134C4.52191 22.4303 4.6972 22.7649 4.93573 23.0217C5.17843 23.2833 5.4871 23.4661 5.86463 23.5691C6.48294 23.7372 7.39066 23.6894 8.53691 23.4178C8.77849 23.3613 9.14928 23.2572 9.42585 23.1746C9.1793 24.0422 9.20675 24.8343 9.48348 25.4027C9.57288 25.5854 9.82297 25.8935 9.97257 26.007C10.8666 26.6784 12.7463 26.6532 15.2683 25.8577C15.4704 25.7942 16.0406 25.5959 16.3245 25.4921C16.5188 25.7529 16.6997 25.8556 17.1191 25.9063C17.3921 25.9361 17.616 25.8921 17.8282 25.7692C17.925 25.7127 17.9823 25.6571 18.0148 25.6053C18.0676 25.5209 18.0774 25.434 18.0408 25.33C18.0056 25.2326 17.9551 25.1747 17.8642 25.1337C17.812 25.1101 17.7356 25.0933 17.6115 25.0838C17.5148 25.0773 17.4806 25.0734 17.429 25.0366L17.4451 25.0231C17.8865 24.8353 18.84 24.3562 19.4283 24.0264C21.58 22.8189 23.8791 21.1173 25.4102 19.5979C26.7977 18.2227 28.1422 16.5066 28.4199 15.7713C28.5042 15.5509 28.5273 15.3219 28.4917 15.1435C28.4617 15.0043 28.4451 14.9664 28.3116 14.806C28.1703 14.6368 28.1406 14.6208 28.0103 14.569C27.5766 14.3972 26.9062 14.5864 25.5857 15.3978C23.8961 16.4354 21.3888 18.3619 19.6223 19.9825C17.8823 21.5771 16.7391 22.9707 16.3152 23.9933C16.2642 24.1165 16.2656 24.1741 16.2391 24.1886C16.2118 24.2038 15.9768 24.2958 15.7184 24.3982C14.2942 24.9543 13.053 25.2732 12.1261 25.314C11.8704 25.3258 11.4622 25.298 11.2604 25.2543C11.0914 25.218 10.8837 25.1356 10.8048 25.0605C10.7069 24.9687 10.6684 24.8148 10.6618 24.621C10.6533 24.3767 10.7023 24.0717 10.8047 23.7172C10.8748 23.4775 11.1212 22.8582 11.244 22.6174L11.5323 22.4611C13.0861 21.87 14.8444 21.0141 16.4911 20.0479C18.7156 18.7423 21.2757 16.9323 23.5681 15.0397C24.9341 13.9119 25.6685 13.2006 26.3647 12.3352C26.9083 11.6598 27.3486 10.8988 27.449 10.4748C27.5215 10.1733 27.5119 9.90355 27.4324 9.67588C27.349 9.43611 27.1884 9.23961 26.9531 9.10092C26.3403 8.73956 25.2298 8.88197 23.729 9.5627C22.3097 10.2066 20.5354 11.3162 18.531 12.837C17.3332 13.7435 15.6565 15.1464 14.7704 15.9815C12.5089 18.1151 10.9597 19.9706 10.1007 21.5681L10.0424 21.6772C9.28235 21.9646 8.10865 22.2985 7.52068 22.399C7.03079 22.4815 6.55774 22.5036 6.27989 22.4485C6.10798 22.415 5.977 22.3597 5.88101 22.2604C5.78117 22.1574 5.72049 22.0111 5.67619 21.8164C5.60861 21.5111 5.62868 21.0091 5.71921 20.6377C5.99883 19.4925 6.92083 17.848 8.3284 15.9613L8.6337 15.5531L8.94896 15.4304C11.0344 14.6249 13.6237 13.1759 15.9199 11.5269C17.1928 10.6122 18.5612 9.4768 19.491 8.56228C20.2299 7.83586 20.8204 7.16643 21.2768 6.5406C21.6787 5.98679 21.9315 5.51887 22.0453 5.12167C22.1721 4.67878 22.1325 4.31549 21.9503 4.00838C21.8111 3.77362 21.5997 3.61603 21.3317 3.5424C21.0867 3.47507 20.7907 3.47976 20.4591 3.56904C19.4966 3.83126 18.0621 4.69735 16.0117 6.26951C15.5019 6.66267 13.8203 8.08192 13.3182 8.5429C11.2235 10.4753 9.36758 12.4496 7.79565 14.4156L7.49853 14.788L7.33191 14.8377C6.84796 14.9812 6.29225 15.0871 5.89882 15.111C5.66864 15.1249 5.36398 15.0926 5.23124 15.0319C5.16125 15.0009 5.15001 14.9924 5.10924 14.9365C5.03733 14.8367 5.02048 14.7411 5.01454 14.5503C4.985 13.7163 5.55917 12.3059 6.51216 10.8103C6.89177 10.2184 7.30142 9.64647 7.73947 9.09688L7.95488 8.82562C8.63804 8.61249 9.31606 8.17977 10.3369 7.31804C11.5097 6.32586 12.6561 5.07694 12.9745 4.64665C13.3465 4.14434 13.4888 3.64477 13.4267 3.44795C13.3857 3.32573 13.3066 3.2201 13.201 3.14682C13.0941 3.07255 12.9667 3.03654 12.8447 3.04946C12.6646 3.06786 12.2519 3.28971 11.7034 3.69079C11.3154 3.97335 10.2382 4.86737 9.76663 5.29799C8.90658 6.08108 8.33899 6.65508 7.62983 7.45561L7.40591 7.70749C7.23053 7.74453 7.04873 7.73692 6.87701 7.68537C6.75197 7.64904 6.65534 7.64452 6.57636 7.66164ZM15.1422 8.72681C15.7388 8.20593 15.9903 7.99603 16.8098 7.33177C17.7993 6.53075 18.8883 5.77075 19.6864 5.32317C20.0776 5.1031 20.4439 4.92921 20.7291 4.87189C20.6633 5.01074 20.5622 5.18512 20.453 5.35111C19.9214 6.15245 19.1125 7.06423 17.8992 8.23047C17.5332 8.58391 15.7053 10.1239 15.2494 10.4671C13.7123 11.6189 12.2948 12.537 10.8373 13.3209C10.6517 13.4205 10.4296 13.5356 10.2156 13.6443C11.7269 11.9247 13.4341 10.2205 15.1422 8.72681ZM22.7766 11.6255C24.3166 10.6897 25.6316 10.142 26.2552 10.1125C26.2411 10.1653 26.2189 10.2303 26.1942 10.2878C25.951 10.8665 25.2672 11.7095 24.2921 12.6487C23.8905 13.0343 22.3222 14.3502 21.5917 14.9152C18.0925 17.6127 15.2205 19.4298 12.4278 20.7035C12.9172 20.0376 13.6047 19.2186 14.255 18.5321C15.4768 17.242 16.9749 15.8764 18.4724 14.689C20.1378 13.3672 21.4689 12.4209 22.7766 11.6255ZM23.706 18.4002C24.8494 17.5004 25.8714 16.7794 26.6258 16.3361C26.5555 16.4316 26.4838 16.526 26.4107 16.6194C25.2069 18.1543 23.7675 19.5308 21.9707 20.8606C20.9161 21.6404 19.8236 22.3525 18.7616 22.9497C19.3732 22.242 20.1477 21.4675 21.2021 20.5062C21.4766 20.2546 23.3421 18.6852 23.7062 18.4002H23.706Z" fill="#6F3D58"/>
<path d="M15.207 21.9141C18.9285 21.9141 21.9453 18.871 21.9453 15.1172C21.9453 11.3634 18.9285 8.32031 15.207 8.32031C11.4856 8.32031 8.46875 11.3634 8.46875 15.1172C8.46875 18.871 11.4856 21.9141 15.207 21.9141Z" fill="#4F4F4F"/>
<path d="M28.0103 14.5551C28.1406 14.6071 28.1701 14.623 28.3116 14.7927C28.4451 14.9529 28.4616 14.9909 28.4917 15.1304C28.5273 15.3088 28.5042 15.5382 28.4201 15.7589C28.1424 16.4949 26.7977 18.2132 25.4102 19.59C23.8791 21.1111 21.58 22.8148 19.4283 24.0236C18.84 24.3537 17.8867 24.8334 17.4451 25.0214L17.4291 25.035L16.3247 25.4909C16.2135 25.5316 16.0586 25.5867 15.899 25.6427L15.7923 25.6798C15.5794 25.7539 15.3738 25.8237 15.2684 25.8569C12.7462 26.6535 10.8665 26.6785 9.97261 26.0065L10.8049 25.0588C10.8835 25.134 11.0914 25.2166 11.2604 25.2528C11.4622 25.2967 11.8704 25.3245 12.1261 25.3127C13.0531 25.2718 14.2942 24.9524 15.7184 24.3957C15.9769 24.2934 16.2119 24.2011 16.2392 24.1859L18.7617 22.9455C19.8236 22.3477 20.9161 21.6349 21.9705 20.8541C23.7675 19.5227 25.2069 18.1447 26.4107 16.6079C26.4838 16.5144 26.5555 16.4199 26.6258 16.3243L28.0103 14.5551ZM26.9531 9.08061C27.1884 9.21962 27.3488 9.41635 27.4324 9.6564C27.5119 9.88433 27.5215 10.1544 27.449 10.4561C27.3486 10.8807 26.9083 11.6426 26.3647 12.3188C25.6685 13.1852 24.934 13.8973 23.5682 15.0264C21.2757 16.9213 18.7156 18.7334 16.4912 20.0403C14.8443 21.0078 13.0861 21.8646 11.5323 22.4565L11.2441 22.613L9.42589 23.1707C9.14932 23.2535 8.77853 23.3576 8.53695 23.4143C7.39071 23.6862 6.48299 23.7341 5.86468 23.5656C5.48715 23.4625 5.17847 23.2795 4.93577 23.0176C4.69741 22.7606 4.5218 22.4255 4.41313 22.0083L5.67639 21.8109C5.7207 22.006 5.78121 22.1523 5.88105 22.2556C5.97704 22.355 6.10802 22.4101 6.27993 22.4439C6.55779 22.4989 7.03067 22.4769 7.52072 22.3943C8.10869 22.2936 9.28239 21.9595 10.0424 21.6717L12.4277 20.6968C15.2205 19.4217 18.0926 17.6025 21.5916 14.9016C22.3222 14.3362 23.8905 13.0187 24.2919 12.6326C25.2672 11.6922 25.951 10.8484 26.194 10.2692C26.2183 10.212 26.2388 10.1533 26.2552 10.0933L26.9531 9.08061ZM21.3318 3.51562C21.4605 3.54834 21.5814 3.60643 21.6875 3.68654C21.7937 3.76665 21.883 3.86718 21.9503 3.98231C22.1325 4.28977 22.1723 4.65348 22.0453 5.09689C21.9314 5.49455 21.6787 5.96285 21.2768 6.51731C20.8204 7.14403 20.2297 7.81424 19.491 8.5415C18.5612 9.45709 17.1928 10.5937 15.9199 11.5094C13.6237 13.1603 11.0344 14.6112 8.949 15.4176L8.63374 15.5405L7.52329 15.8782L6.51477 16.1066C5.99823 16.1858 5.48634 16.1892 5.15199 16.1177C4.74428 16.0304 4.4913 15.8848 4.27525 15.6286C3.98295 15.281 3.85951 14.8341 3.90911 14.1947L5.01475 14.5365C5.02053 14.7275 5.03722 14.8232 5.10929 14.923C5.15006 14.9791 5.1613 14.9876 5.23128 15.0188C5.36403 15.0795 5.66869 15.1118 5.89887 15.0979C6.05296 15.0885 6.30578 15.0445 6.5565 14.9944L6.63997 14.9776C6.97208 14.9097 7.28059 14.8363 7.32618 14.8257L7.3318 14.824L10.2156 13.6295L10.222 13.6262C10.2766 13.5981 10.6651 13.3983 10.8373 13.3057C12.2948 12.5209 13.7121 11.6017 15.2494 10.4483C15.7053 10.105 17.5331 8.56316 17.8992 8.20931C19.1126 7.04171 19.9214 6.12887 20.453 5.32643C20.5622 5.16026 20.6275 4.98794 20.7291 4.84666L21.3317 3.51562H21.3318Z" fill="#6F3D58"/>
</svg>
