<svg width="31" height="30" viewBox="0 0 31 30" fill="none" xmlns="http://www.w3.org/2000/svg">
<mask id="mask0_803_14" style="mask-type:luminance" maskUnits="userSpaceOnUse" x="2" y="2" width="27" height="26">
<path d="M2.5 2H28.5V28H2.5V2Z" fill="white"/>
</mask>
<g mask="url(#mask0_803_14)">
<path d="M20.5156 19.9431C21.4744 19.8434 22.2024 19.0082 22.1699 18.0061C22.1537 17.5244 21.9518 17.0677 21.6065 16.7315C21.2612 16.3953 20.7993 16.2057 20.3174 16.2023H20.2502C19.2243 16.2348 18.4302 17.1037 18.4627 18.1393C18.4974 18.6409 18.6956 19.0743 18.9935 19.3743C17.8679 21.6136 16.1476 23.2494 13.566 24.6188C11.8132 25.5548 9.9932 25.8884 8.17428 25.6544C6.6847 25.454 5.52661 24.7856 4.79861 23.6838C3.7402 22.048 3.64161 20.2768 4.53428 18.5066C5.16261 17.238 6.15603 16.302 6.78436 15.8351C6.61394 15.2742 6.47042 14.7056 6.35428 14.131C1.5562 17.6388 2.05345 22.3817 3.50728 24.6198C4.59928 26.2903 6.81578 27.326 9.2652 27.326C9.93389 27.3305 10.6006 27.2519 11.2499 27.092C15.4857 26.2578 18.6945 23.7185 20.5145 19.9442L20.5156 19.9431ZM26.3385 15.8015C23.8241 12.8288 20.118 11.1919 15.8833 11.1919H15.3535C15.2027 10.8912 14.9713 10.6383 14.6851 10.4614C14.399 10.2844 14.0693 10.1904 13.7329 10.1898H13.6657C12.6409 10.2234 11.8457 11.0923 11.8793 12.1279C11.9118 13.13 12.7394 13.9306 13.7318 13.9306H13.7989C14.1484 13.9125 14.4857 13.7964 14.7723 13.5957C15.0589 13.3949 15.2832 13.1175 15.4196 12.7953H16.0154C18.5299 12.7953 20.9121 13.5298 23.0625 14.9663C24.7168 16.0691 25.9084 17.5045 26.5693 19.2422C27.1326 20.644 27.1001 22.0133 26.5043 23.1833C25.5769 24.9535 24.0224 25.922 21.9705 25.922C20.6478 25.922 19.39 25.5212 18.7281 25.22C18.2518 25.6449 17.7551 26.0462 17.2396 26.4225C18.662 27.0909 20.118 27.4582 21.5079 27.4582C24.6843 27.4582 27.0329 25.688 27.9267 23.9178C28.8854 21.9808 28.8194 18.6409 26.3385 15.8015ZM9.53061 20.5108C9.56311 21.5128 10.3908 22.3145 11.3831 22.3145H11.4492C12.4751 22.282 13.2692 21.4132 13.2367 20.3775C13.2205 19.8959 13.0186 19.4391 12.6733 19.1029C12.328 18.7667 11.8661 18.5771 11.3842 18.5738H11.317C11.2383 18.5685 11.1594 18.5796 11.0852 18.6063C9.72886 16.3356 9.16661 13.8645 9.36486 11.1919C9.49703 9.18775 10.1589 7.45117 11.317 6.01467C12.2769 4.77967 14.1294 4.17842 15.3871 4.14484C18.8939 4.07767 20.3824 8.48684 20.482 10.257C20.9121 10.3567 21.6401 10.5907 22.1363 10.7575C21.7387 5.34734 18.4313 2.5415 15.2539 2.5415C12.2769 2.5415 9.53061 4.7125 8.43861 7.91917C6.91653 12.194 7.90886 16.302 9.76245 19.5423C9.5967 19.7763 9.49703 20.1435 9.53061 20.5108Z" fill="#6F3D58"/>
</g>
</svg>
