<svg width="30" height="30" viewBox="0 0 30 30" fill="none" xmlns="http://www.w3.org/2000/svg">
<path d="M11.2197 4V11.3654H18.0305C18.2758 11.3654 18.4702 11.5818 18.4702 11.8082V18.96H25.5V4.46017C25.5 4.33812 25.4537 4.22108 25.3712 4.13478C25.2887 4.04848 25.1769 4 25.0603 4H11.2197ZM10.7817 4.45833L4.56398 10.9731C4.53334 11.0053 4.51252 11.0463 4.50414 11.0909C4.49575 11.1355 4.50018 11.1817 4.51686 11.2237C4.53354 11.2657 4.56172 11.3015 4.59786 11.3268C4.634 11.352 4.67646 11.3654 4.7199 11.3654H10.7817V4.45833ZM11.2197 11.8238V18.4999C11.2197 18.7547 11.4159 18.96 11.6594 18.96H18.0322V12.2665C18.0322 12.0117 17.836 11.8247 17.5925 11.8238H11.2197ZM18.4702 19.4184V25.7691C18.4702 25.9744 18.7076 26.0771 18.8469 25.9322L25.062 19.4184H18.4702Z" fill="#6F3D58"/>
</svg>
