<svg width="31" height="30" viewBox="0 0 31 30" fill="none" xmlns="http://www.w3.org/2000/svg">
<path d="M17.3486 12.3539C15.3161 11.5989 14.2086 11.0202 14.2086 10.1002C14.2086 9.3227 14.8473 8.87895 15.9873 8.87895C18.0711 8.87895 20.2111 9.68145 21.6848 10.4039L22.5173 5.2652C21.3486 4.7077 18.9586 3.79395 15.6548 3.79395C13.3173 3.79395 11.3736 4.4052 9.9848 5.5452C8.54105 6.73769 7.78855 8.4627 7.78855 10.5452C7.78855 14.3239 10.0973 15.9352 13.8473 17.2989C16.2673 18.1589 17.0711 18.7714 17.0711 19.7164C17.0711 20.6314 16.2848 21.1602 14.8686 21.1602C13.1148 21.1602 10.2236 20.2989 8.3298 19.1877L7.4873 24.3839C9.1173 25.2989 12.1186 26.2439 15.2336 26.2439C17.7036 26.2439 19.7636 25.6602 21.1523 24.5489C22.7086 23.3277 23.5148 21.5214 23.5148 19.1877C23.5148 15.3239 21.1536 13.7127 17.3461 12.3527H17.3486V12.3539Z" fill="#6F3D58"/>
</svg>
